<svg width="659" height="448" viewBox="0 0 659 448" fill="none" xmlns="http://www.w3.org/2000/svg">
<g clip-path="url(#clip0)">
<path d="M658.387 379.247H65.8386V383.582H658.387V379.247Z" fill="#85848B"/>
<path d="M535.291 302.693C535.291 306.028 515.876 315.75 492.814 315.75C469.751 315.75 451.782 306.028 451.782 302.693C451.782 299.358 470.474 300.432 493.559 300.432C516.644 300.432 535.291 299.352 535.291 302.693Z" fill="#504F60"/>
<path opacity="0.2" d="M535.291 302.693C535.291 306.028 515.876 315.751 492.814 315.751C469.751 315.751 451.782 306.028 451.782 302.693" fill="black"/>
<path d="M303.038 241.497C306.781 241.978 310.665 242.283 314.25 241.119C314.814 240.943 315.435 240.553 315.379 239.988C315.338 239.783 315.252 239.589 315.125 239.423C313.773 237.394 312.638 235.228 311.737 232.962C311.702 232.844 311.628 232.74 311.529 232.668C311.412 232.626 311.284 232.626 311.167 232.668C309.513 233.103 308.085 234.172 306.442 234.629C305.604 234.86 304.73 234.925 303.867 234.822C303.122 234.737 302.106 234.121 301.429 234.2C301.813 236.67 302.75 238.976 303.038 241.497Z" fill="#13B3FF"/>
<path d="M373.827 235.24C376.295 233.544 378.852 231.764 380.309 229.147C380.413 228.99 380.473 228.809 380.484 228.621C380.459 228.436 380.387 228.261 380.275 228.112C378.887 225.904 377.101 223.973 375.007 222.42C373.915 223.193 372.928 224.105 372.072 225.133C371.451 225.789 369.734 226.829 369.717 227.83C369.717 228.395 370.372 229.051 370.677 229.525C371.089 230.136 371.479 230.758 371.851 231.391C372.066 231.702 374.025 235.116 373.827 235.24Z" fill="#13B3FF"/>
<path d="M317.71 249.067C317.754 249.649 317.595 250.229 317.259 250.706C316.995 250.971 316.669 251.166 316.31 251.271C311.077 253.148 305.019 250.808 299.797 252.656C298.724 253.035 297.708 253.583 296.63 253.945C295.344 254.332 294.018 254.567 292.678 254.646C290.832 254.821 288.974 254.934 287.123 254.985C285.716 255.085 284.302 254.961 282.934 254.618C282.249 254.442 281.61 254.125 281.056 253.685C280.503 253.246 280.048 252.695 279.721 252.068C279.437 251.506 279.381 250.856 279.563 250.254C279.645 250.047 279.762 249.856 279.908 249.688C280.262 249.291 280.677 248.953 281.138 248.688L283.063 247.444C283.966 246.805 284.947 246.285 285.982 245.895C286.744 245.647 287.552 245.539 288.325 245.33C291.029 244.539 293.096 242.391 295.015 240.328L297.635 237.53C297.88 237.222 298.19 236.973 298.544 236.8C298.907 236.679 299.293 236.642 299.673 236.693C302.217 236.875 304.674 237.699 306.814 239.09C307.361 239.5 307.952 239.849 308.576 240.13C310.111 240.729 312.082 240.277 313.499 239.519C314.171 239.158 314.024 238.954 314.306 238.31C314.588 237.665 315.277 237.253 315.876 237.84C316.056 238.044 316.184 238.288 316.248 238.553C316.813 240.418 316.598 242.425 316.598 244.381C316.582 244.686 316.62 244.993 316.711 245.285C316.855 245.58 317.027 245.86 317.225 246.122C317.265 246.191 317.301 246.263 317.332 246.336C317.677 247.202 317.807 248.139 317.71 249.067V249.067Z" fill="#514E7F"/>
<path d="M317.71 249.067C317.754 249.649 317.595 250.228 317.259 250.706C316.995 250.971 316.669 251.166 316.31 251.271C311.077 253.148 305.019 250.808 299.797 252.656C298.724 253.035 297.708 253.583 296.63 253.945C295.344 254.332 294.018 254.567 292.678 254.646C290.832 254.821 288.974 254.934 287.123 254.985C285.716 255.085 284.302 254.961 282.934 254.617C282.249 254.442 281.61 254.125 281.056 253.685C280.503 253.246 280.048 252.695 279.721 252.068C279.437 251.506 279.381 250.856 279.563 250.254C279.645 250.047 279.762 249.856 279.908 249.688C280.212 250.327 280.433 251.175 280.625 251.48C280.884 251.933 281.237 252.324 281.659 252.629C282.082 252.935 282.564 253.146 283.075 253.25C283.839 253.297 284.605 253.199 285.333 252.961C290.075 251.785 295.117 251.769 299.673 249.988C301.237 249.372 302.727 248.552 304.37 248.179C306.013 247.806 307.757 247.908 309.451 247.766C312.127 247.552 314.718 246.743 317.355 246.319C317.695 247.192 317.817 248.135 317.71 249.067V249.067Z" fill="#464353"/>
<path d="M385.813 234.895C385.565 236.885 384.306 238.598 382.922 240.05C381.539 241.503 379.975 242.809 378.875 244.482C377.52 246.556 376.91 249.128 375.149 250.881C374.472 251.518 373.713 252.06 372.89 252.492C371.969 253.036 370.995 253.485 369.983 253.831C367.352 254.674 364.518 254.481 361.768 254.278C360.876 254.269 359.992 254.099 359.16 253.775C358.781 253.582 358.419 253.359 358.076 253.108C357.387 252.683 356.807 252.102 356.383 251.412C356.174 251.037 356.116 250.597 356.219 250.18C356.376 249.721 356.646 249.309 357.004 248.981C357.622 248.337 358.286 247.738 358.991 247.19C359.957 246.565 360.828 245.803 361.577 244.929C362.036 244.237 362.373 243.473 362.576 242.667C362.976 241.257 363.22 239.807 363.304 238.343C363.301 237.371 363.401 236.4 363.603 235.449C364.021 233.957 365.128 232.623 365.003 231.08C364.953 230.859 364.973 230.627 365.06 230.418C365.191 230.255 365.375 230.141 365.579 230.096C366.442 229.752 367.352 229.54 368.278 229.469C368.742 229.436 369.208 229.508 369.642 229.678C370.075 229.848 370.465 230.113 370.784 230.452C371.168 230.916 371.422 231.583 371.987 231.764C372.267 231.84 372.56 231.852 372.845 231.797C374.234 231.656 375.702 231.481 376.797 230.582C377.303 230.128 377.71 229.573 377.992 228.953C378.274 228.334 378.424 227.662 378.434 226.981C378.434 226.467 378.203 225.93 378.999 225.851C379.597 225.772 380.071 226.416 380.376 226.812C381.477 228.287 382.606 229.83 383.018 231.628C383.179 231.566 383.349 231.533 383.521 231.532C383.873 231.529 384.221 231.611 384.534 231.771C384.848 231.932 385.118 232.166 385.322 232.453C385.771 233.182 385.946 234.049 385.813 234.895Z" fill="#514E7F"/>
<path d="M385.813 234.895C385.565 236.885 384.306 238.598 382.922 240.05C381.539 241.503 379.975 242.809 378.875 244.482C377.52 246.557 376.91 249.129 375.149 250.881C374.472 251.518 373.713 252.06 372.89 252.492C371.969 253.036 370.995 253.485 369.983 253.832C367.352 254.674 364.518 254.482 361.769 254.278C360.876 254.27 359.992 254.099 359.16 253.775C358.782 253.582 358.419 253.359 358.076 253.108C357.387 252.683 356.807 252.102 356.383 251.412C356.912 251.157 357.489 251.019 358.076 251.005C359.296 251.073 360.188 252.226 361.356 252.582C363.022 253.085 364.682 251.91 366.37 251.508C367.471 251.248 368.628 251.316 369.717 250.943C370.626 250.592 371.465 250.083 372.196 249.439C373.198 248.722 374.09 247.861 374.844 246.884C375.469 245.908 375.99 244.868 376.396 243.781C377.288 241.699 378.337 239.688 379.535 237.767C379.712 237.463 379.927 237.181 380.173 236.93C380.438 236.687 380.738 236.518 381.037 236.303C382.166 235.449 382.635 234.042 383.03 232.662C383.137 232.243 383.286 231.836 383.476 231.447C383.828 231.444 384.176 231.526 384.489 231.687C384.803 231.847 385.073 232.081 385.277 232.368C385.762 233.115 385.954 234.016 385.813 234.895V234.895Z" fill="#464353"/>
<path d="M267.431 58.6574C268.836 59.7117 269.993 61.0625 270.818 62.6142C271.609 64.163 276.165 76.1805 275.899 77.9272C277.384 76.4292 283.239 76.1862 284.74 74.6882C285.367 74.0608 288.749 70.9292 289.257 70.2C289.765 69.4708 293.536 67.939 293.948 67.1702C295.489 64.4061 283.018 53.9318 284.616 51.2015C284.704 51.0761 284.75 50.9254 284.746 50.7719C284.709 50.6431 284.637 50.5273 284.537 50.4384C283.515 49.3927 282.16 48.7426 280.929 47.9682C279.699 47.1938 278.513 46.1142 278.18 44.6897C277.006 45.2306 275.929 45.96 274.99 46.849C272.702 48.8124 270.453 50.8153 268.244 52.8578C267.38 53.6604 265.709 54.7288 265.308 55.8763C264.834 57.1085 266.607 57.9847 267.431 58.6574Z" fill="#A1616A"/>
<path d="M287.619 54.209C285.706 55.4964 283.918 56.9612 282.279 58.5841C280.732 60.116 279.264 61.8909 278.891 64.0333C278.733 64.8755 278.756 65.729 278.626 66.5826C278.062 70.2851 274.866 72.9983 273.455 76.4634C273.046 77.5329 272.745 78.6407 272.557 79.7702C272.161 81.9114 271.943 84.082 271.908 86.2594C271.874 88.3678 273.94 89.8206 274.697 91.7877C275.453 93.7548 275.657 95.7784 276.04 97.7964C276.763 101.606 278.09 105.281 279.428 108.932C282.211 116.631 291.233 137.913 294.016 145.618C302.546 143.475 325.253 138.552 332.807 134.035C335.325 132.532 315.334 115.568 318.027 114.398C318.181 114.374 318.327 114.315 318.454 114.224C318.581 114.134 318.685 114.015 318.759 113.878C318.832 113.74 318.872 113.587 318.877 113.432C318.881 113.276 318.849 113.121 318.783 112.979C316.09 101.188 307.667 91.4994 303.845 80.0189C302.518 76.0338 300.136 72.6309 298.329 68.8437C296.692 65.4125 295.817 61.6196 293.858 58.358C293.488 57.686 293.005 57.0835 292.43 56.5774C291.941 56.2023 291.413 55.882 290.854 55.6221C289.737 55.0795 288.698 54.7573 287.619 54.209Z" fill="#514E7F"/>
<path d="M267.883 57.3175C275.257 57.3175 281.234 51.3323 281.234 43.949C281.234 36.5658 275.257 30.5806 267.883 30.5806C260.509 30.5806 254.531 36.5658 254.531 43.949C254.531 51.3323 260.509 57.3175 267.883 57.3175Z" fill="#A1616A"/>
<path d="M281.466 50.2293C282.131 49.6148 282.967 49.2167 283.863 49.0875C284.759 48.9583 285.673 49.1042 286.485 49.5058C287.388 49.9749 288.178 50.9246 287.975 51.9194L294.597 52.0212C295.651 51.9923 296.705 52.0891 297.736 52.3095C298.774 52.5357 299.701 53.1174 300.356 53.9544C300.435 54.0618 300.525 54.1918 300.661 54.2088C300.771 54.2105 300.879 54.1746 300.966 54.107C301.984 53.5954 303.132 53.3987 304.263 53.5417C307.842 53.7735 311.15 55.5654 313.956 57.8038C314.462 58.1521 314.855 58.6415 315.085 59.2113C315.317 59.9631 315.04 60.9071 315.65 61.4441C315.65 67.662 317.784 73.4729 319.207 79.5326C319.461 80.6122 320.494 81.5675 321.211 82.4154C322.097 83.3554 322.82 84.4367 323.35 85.6148C324.559 88.7577 322.893 92.4545 324.067 95.6087C324.564 96.9427 325.524 98.0393 326.326 99.1981C327.382 100.536 328.05 102.14 328.256 103.833C328.307 104.591 328.211 105.354 328.256 106.094C328.332 107.113 328.522 108.12 328.821 109.096C329.303 110.92 329.807 112.742 330.334 114.562C331.192 117.501 332.31 120.672 334.941 122.238C328.589 123.318 321.894 124.375 315.842 122.165C314.998 121.876 314.196 121.475 313.459 120.972C311.275 119.412 310.219 116.744 309.276 114.223C308.226 111.396 307.159 108.519 306.944 105.512C306.946 104.556 306.811 103.604 306.544 102.686C305.928 101.047 304.285 100.057 302.795 99.1472C301.112 98.2238 299.587 97.0369 298.278 95.6313C297.629 94.9233 297.132 94.0895 296.817 93.1814C296.502 92.2733 296.377 91.3102 296.449 90.3517C296.562 89.419 296.929 88.5203 296.963 87.5819C296.997 86.6436 296.579 85.5696 295.681 85.3209C291.058 83.919 288.85 78.436 287.823 73.7104C287.379 71.268 287.181 68.7873 287.23 66.3054L287.168 61.4837C286.53 60.9025 286.017 60.1973 285.659 59.4111C285.302 58.625 285.109 57.7742 285.09 56.9107C285.152 56.4069 285.142 55.897 285.062 55.3958C284.839 54.7832 284.475 54.2315 284.001 53.7848C282.98 52.7358 282.125 51.5368 281.466 50.2293V50.2293Z" fill="#464353"/>
<path d="M267.245 65.5139C267.092 67.0061 267.431 68.538 267.098 70.002C266.968 70.5673 266.742 71.1326 266.578 71.6583C266.078 73.7655 266.295 75.9797 267.194 77.9496C268.092 79.9002 269.167 81.764 270.406 83.5175C270.825 84.1161 271.17 84.7633 271.434 85.445C271.647 86.1609 271.78 86.8984 271.829 87.6439C272.156 90.6373 272.68 93.6057 273.398 96.5298C274.031 99.0622 281.212 120.712 282.883 122.718C283.186 123.163 283.646 123.476 284.17 123.595C284.548 123.609 284.924 123.531 285.265 123.369L288.653 122.068C288.941 121.98 289.208 121.834 289.437 121.639C289.755 121.267 289.927 120.794 289.923 120.305C290.166 117.546 282.968 95.7441 282.053 93.1383C279.287 85.2698 275.606 77.684 273.805 69.5385C273.302 67.2775 273.037 63.7954 271.383 61.9923C270.7 61.2461 270.931 61.5627 270.113 61.9527C269.699 62.1324 269.299 62.3421 268.916 62.5801C268.437 62.9137 268.038 63.3501 267.749 63.8577C267.46 64.3653 267.287 64.9311 267.245 65.5139Z" fill="#464353"/>
<path d="M277.525 80.4426C278.434 85.253 279.371 90.0521 280.303 94.8625L293.559 91.3861C293.666 89.9956 292.926 88.7068 292.43 87.4293C291.221 84.3938 291.193 81.0135 290.216 77.8933C289.477 75.5192 288.19 73.3373 287.495 70.9462C287.094 69.5557 286.891 68.1199 286.496 66.7124C286.072 65.3302 285.551 63.9796 284.938 62.6707C284.194 60.7725 283.223 58.9714 282.047 57.3064C280.354 57.9395 278.547 58.6743 277.582 60.2062C277.086 61.0693 276.804 62.0382 276.757 63.0325C276.526 66.0115 277.604 69.0073 277.249 71.9693C276.882 74.7901 276.976 77.6518 277.525 80.4426V80.4426Z" fill="#13B3FF"/>
<path d="M293.779 144.43C294.524 147.257 293.446 150.23 292.565 153.028C291.239 157.243 290.335 161.579 289.866 165.973C289.809 167.091 289.584 168.194 289.2 169.245C288.782 170.189 288.071 170.986 287.586 171.885C286.253 174.248 286.287 177.131 286.575 179.833C286.767 181.613 287.055 183.388 287.411 185.141C287.845 187.283 288.382 189.521 287.755 191.613C288.805 191.381 289.516 192.743 289.449 193.812C289.381 194.88 289.037 196.073 289.55 196.994C290.849 197.469 290.86 199.255 290.821 200.64C290.842 203.041 291.145 205.432 291.724 207.762C293.688 217.221 295.774 226.654 297.979 236.06C302.75 237.541 308.322 239.084 312.872 237.032C313.719 236.653 314.566 236.048 314.758 235.133C314.807 234.639 314.746 234.141 314.577 233.674L312.42 225.817C311.895 223.918 311.37 221.956 311.647 220.006C311.856 218.553 312.488 216.988 311.777 215.704C311.534 215.263 311.15 214.919 310.868 214.5C309.739 212.844 310.332 210.628 310.422 208.622C310.457 208.171 310.427 207.718 310.332 207.276C310.177 206.76 309.961 206.265 309.688 205.801C307.906 202.336 307.05 198.469 307.204 194.575C307.271 194.078 307.203 193.572 307.006 193.111C306.869 192.92 306.747 192.72 306.639 192.512C306.555 192.149 306.597 191.768 306.758 191.432C306.111 190.94 305.527 190.371 305.019 189.736C305.332 189.541 305.597 189.278 305.794 188.965C305.99 188.653 306.113 188.3 306.153 187.933C306.194 187.566 306.15 187.195 306.026 186.847C305.902 186.499 305.7 186.185 305.437 185.926C305.667 185.88 305.88 185.77 306.052 185.61C306.224 185.45 306.348 185.245 306.41 185.018C306.473 184.792 306.472 184.552 306.406 184.326C306.341 184.1 306.215 183.897 306.041 183.739C305.764 183.547 305.397 183.462 305.2 183.173C304.895 182.755 305.143 182.173 305.392 181.726L306.707 179.347C307.689 177.577 307.91 175.39 308.965 173.694C310.478 171.224 311.466 168.471 312.443 165.746L316.243 155.249L318.8 157.471C319.652 158.123 320.366 158.937 320.9 159.868C321.264 160.787 321.494 161.754 321.583 162.739C322.52 168.437 326.1 173.377 327.426 178.991C327.72 180.24 327.918 181.551 328.635 182.62C328.891 182.948 329.121 183.295 329.323 183.66C329.51 184.215 329.607 184.797 329.611 185.384C329.73 186.532 330.093 187.641 330.678 188.636C331.262 189.631 332.054 190.488 332.999 191.149C334.258 192.014 335.821 192.608 336.505 193.976C336.641 194.399 336.831 194.804 337.069 195.18C337.679 195.915 338.994 195.999 339.254 196.921C339.401 197.435 339.13 198.051 339.418 198.503C339.581 198.713 339.798 198.875 340.044 198.973L343.72 200.81C347.83 202.867 349.93 207.593 352.961 211.035C354.008 212.157 354.935 213.384 355.728 214.698C357.037 217.044 357.642 219.989 359.855 221.481C360.45 221.79 360.991 222.193 361.458 222.674C362.152 223.59 361.898 224.873 361.96 226.026C362.023 227.179 362.903 228.553 363.998 228.202C363.615 229.599 363.615 231.073 363.998 232.47C368.807 232.223 373.392 230.363 377.017 227.191C378.09 226.252 379.123 225.054 379.134 223.629C379.151 223.384 379.096 223.138 378.976 222.923C378.759 222.645 378.473 222.428 378.146 222.295C374.708 220.43 373.675 216.106 371.936 212.595C370.418 209.498 368.171 206.83 366.291 203.953C362.203 197.763 359.414 190.273 353.232 186.186C351.872 185.288 350.291 184.491 349.608 183.004C349.23 182.173 349.184 181.223 348.885 180.364C348.586 179.505 347.869 178.668 346.954 178.668C347.463 177.425 347.361 175.91 347.395 174.565C347.43 173.967 347.361 173.369 347.192 172.795C346.957 172.178 346.652 171.59 346.283 171.043C344.67 168.309 343.863 165.173 343.957 161.999C344.002 160.365 344.29 158.681 343.799 157.12C343.55 156.335 343.115 155.617 342.816 154.859C342.365 153.487 342.127 152.053 342.111 150.609L341.772 145.176C341.721 143.367 341.486 141.568 341.072 139.806C339.943 135.59 338.814 117.925 334.946 115.935C331.079 113.946 324.434 127.54 320.082 127.806C318.156 127.886 316.253 128.254 314.436 128.897C311.54 129.982 309.112 132.006 306.747 133.984L298.741 140.717C297.048 142.113 295.647 143.447 293.779 144.43Z" fill="#464353"/>
<path d="M255.355 29.1055C257.117 26.6975 260.143 25.42 263.123 25.3126C266.104 25.2052 269.04 26.1435 271.71 27.4719C272.499 27.9207 273.341 28.2664 274.217 28.5006C275.628 28.7889 277.198 28.4046 278.474 29.0659C280.167 29.9647 280.495 32.254 280.348 34.1533C280.201 36.0526 279.846 38.161 280.856 39.8059C281.215 40.275 281.541 40.7679 281.833 41.2812C282.268 42.2592 282.013 43.3897 281.754 44.4241C281.093 43.8589 280.721 43.0053 280.134 42.3496C279.546 41.6939 278.525 41.253 277.796 41.7448C277.068 42.2365 277.079 43.1297 277.04 43.9323C277 44.735 276.797 45.696 276.04 45.956C275.724 46.028 275.394 46.0034 275.092 45.8855C274.79 45.7676 274.531 45.5618 274.347 45.2946C273.054 43.7119 273.573 41.1852 272.292 39.5911C271.564 38.6867 270.35 38.2458 269.678 37.2962C269.147 36.55 269.012 35.6004 268.549 34.7977C268.086 33.995 267.008 33.4071 266.291 33.9611C266.046 34.1952 265.842 34.4683 265.686 34.7694C265.239 35.4106 264.589 35.8821 263.842 36.1078C263.094 36.3335 262.292 36.3001 261.565 36.013C261.01 35.6718 260.409 35.411 259.781 35.2386C259.37 35.218 258.961 35.3129 258.601 35.5127C258.241 35.7125 257.944 36.0091 257.743 36.3691C257.338 37.0884 257.142 37.9069 257.179 38.7319C257.179 39.8624 257.382 41.0665 256.738 41.9709C256.494 42.3113 256.187 42.6028 255.835 42.8301C254.892 43.4349 253.577 43.8419 252.707 43.1523C252.413 42.8775 252.193 42.5314 252.071 42.1473C251.948 41.7632 251.926 41.3541 252.007 40.9591C252.177 40.1723 252.399 39.398 252.673 38.6415C253.17 36.8892 252.521 34.9164 253.063 33.2658C253.631 31.7793 254.402 30.3791 255.355 29.1055V29.1055Z" fill="#464353"/>
<path d="M262.508 68.9846C262.423 69.3966 262.467 69.8247 262.632 70.2112C262.8 70.4745 263.028 70.6936 263.298 70.85C265.197 72.0342 267.356 72.7348 269.588 72.8906C269.891 72.8958 270.189 72.9733 270.457 73.1167C270.988 73.4672 271.021 74.2472 270.824 74.869C270.56 75.4556 270.424 76.0913 270.423 76.7344C270.587 77.9158 271.987 78.4302 273.167 78.6054C274.821 78.8146 276.633 78.7072 277.943 77.6727C278.83 76.8625 279.507 75.8477 279.913 74.7164C283.154 67.2606 284.289 59.019 287.569 51.5858C287.817 51.1005 287.983 50.577 288.06 50.037C288.094 49.7667 288.056 49.492 287.949 49.2415C287.842 48.991 287.67 48.7738 287.45 48.6125C286.84 48.2338 285.892 48.4486 285.48 47.8551C285.277 47.5555 285.299 47.1485 285.119 46.8319C284.74 46.1593 283.747 46.2667 283.069 45.8766C282.538 45.594 282.172 45.0118 281.579 44.8987C281.288 44.8823 280.997 44.934 280.729 45.0498C280.462 45.1656 280.225 45.3422 280.037 45.5657C278.112 47.3633 277.102 49.9126 276.029 52.3206C274.391 56.0118 272.474 59.572 270.293 62.9702C270.547 62.5745 269.074 59.5786 268.498 59.4486C267.487 59.2451 266.195 61.0201 265.647 61.6814C263.928 63.7675 262.84 66.3009 262.508 68.9846V68.9846Z" fill="#13B3FF"/>
<path opacity="0.1" d="M283.018 46.4026C282.613 46.4094 282.214 46.5074 281.852 46.6894C281.489 46.8714 281.172 47.1327 280.924 47.454C280.32 48.2397 280.201 49.2798 280.049 50.2803C279.535 53.4501 278.405 56.4883 276.724 59.2228" fill="black"/>
<path opacity="0.1" d="M285.898 48.658C285.338 48.6704 284.791 48.8287 284.311 49.1171C283.831 49.4056 283.434 49.8142 283.16 50.3029C282.786 51.192 282.553 52.1342 282.471 53.0953C281.987 55.226 281.053 57.2285 279.733 58.9684" fill="black"/>
<path d="M420.07 159.167V152.146C420.069 146.978 418.017 142.022 414.367 138.368C410.716 134.715 405.766 132.662 400.604 132.662H123.694C118.533 132.662 113.582 134.715 109.932 138.368C106.282 142.022 104.23 146.978 104.229 152.146V165.091L420.07 159.167Z" fill="#33323D"/>
<path d="M200.728 124.431C200.728 124.431 199.938 173.53 208.632 189.685C217.326 205.841 221.052 276.12 221.052 276.12C221.052 276.12 312.195 285.56 375.707 264.815C439.22 244.069 574.364 235.585 574.364 235.585L551.59 81.8954C551.59 81.8954 439.079 74.6714 375.075 105.235C311.071 135.799 200.728 124.431 200.728 124.431Z" fill="#8DD070"/>
<path opacity="0.1" d="M200.728 124.431C200.728 124.431 199.938 173.53 208.632 189.685C217.326 205.841 221.052 276.12 221.052 276.12C221.052 276.12 312.195 285.56 375.707 264.815C439.22 244.069 574.364 235.585 574.364 235.585L551.59 81.8954C551.59 81.8954 439.079 74.6714 375.075 105.235C311.071 135.799 200.728 124.431 200.728 124.431Z" fill="black"/>
<path d="M220.9 142.367C220.9 142.367 218.049 182.88 225.202 195.824C232.355 208.769 232.688 266.556 232.688 266.556C232.688 266.556 314.713 270.366 373.06 250.48C431.407 230.594 554.017 217.694 554.017 217.694L540.084 92.008C540.084 92.008 438.633 90.9623 379.422 118.954C320.211 146.946 220.9 142.367 220.9 142.367Z" fill="#8DD070"/>
<path opacity="0.1" d="M378.521 227.468C390.192 226.012 397.126 204.515 394.008 179.453C390.89 154.391 378.902 135.254 367.231 136.709C355.56 138.165 348.626 159.662 351.744 184.724C354.862 209.786 366.851 228.923 378.521 227.468Z" fill="black"/>
<path opacity="0.2" d="M489.906 7.02637C489.906 7.02637 380.602 34.7243 329.058 83.4783C277.514 132.232 169.006 155.318 169.006 155.318C169.006 155.318 183.301 202.285 196.522 214.992C209.744 227.7 234.822 293.451 234.822 293.451C234.822 293.451 324.457 274.424 378.542 235.15C432.626 195.875 558.675 146.273 558.675 146.273L489.906 7.02637Z" fill="black"/>
<path d="M167.363 148.286C167.363 148.286 181.652 195.259 194.863 207.966C208.073 220.673 233.162 286.419 233.162 286.419C233.162 286.419 322.808 267.398 376.899 228.123C430.989 188.849 557.026 139.264 557.026 139.264L488.258 0C488.258 0 378.959 27.6979 327.415 76.4519C275.871 125.206 167.363 148.286 167.363 148.286Z" fill="#8DD070"/>
<path opacity="0.1" d="M167.363 148.286C167.363 148.286 181.652 195.259 194.863 207.966C208.073 220.673 233.162 286.419 233.162 286.419C233.162 286.419 322.808 267.398 376.899 228.123C430.989 188.849 557.026 139.264 557.026 139.264L488.258 0C488.258 0 378.959 27.6979 327.415 76.4519C275.871 125.206 167.363 148.286 167.363 148.286Z" fill="black"/>
<path d="M192.04 159.161C192.04 159.161 201.745 198.6 212.522 208.718C223.299 218.836 241.314 273.723 241.314 273.723C241.314 273.723 320.545 252.142 369.983 215.286C419.421 178.431 532.175 128.535 532.175 128.535L480.399 13.1538C480.399 13.1538 383.527 43.3219 335.748 88.1586C287.97 132.995 192.04 159.161 192.04 159.161Z" fill="#8DD070"/>
<path opacity="0.1" d="M368.155 191.725C378.817 186.754 378.828 164.164 368.179 141.269C357.531 118.374 340.256 103.843 329.594 108.814C318.933 113.785 318.922 136.375 329.57 159.271C340.218 182.166 357.493 196.696 368.155 191.725Z" fill="black"/>
<path opacity="0.1" d="M427.545 166.058V361.073C427.545 363.288 427.109 365.481 426.263 367.527C425.416 369.574 424.175 371.433 422.611 372.999C421.046 374.564 419.189 375.806 417.145 376.653C415.101 377.5 412.911 377.936 410.699 377.935H121.081C116.615 377.934 112.333 376.157 109.176 372.995C106.019 369.833 104.245 365.544 104.245 361.073V146.398C112.544 149.484 112.544 149.484 121.081 149.224H410.699C415.161 149.224 419.441 150.996 422.599 154.152C425.757 157.308 427.536 161.59 427.545 166.058V166.058Z" fill="black"/>
<path d="M427.545 168.539V363.555C427.544 368.027 425.768 372.316 422.609 375.478C419.45 378.64 415.166 380.416 410.699 380.416H121.081C116.615 380.415 112.333 378.638 109.176 375.476C106.019 372.314 104.245 368.026 104.245 363.555V148.873C112.544 151.954 112.544 151.954 121.081 151.7H410.699C415.162 151.7 419.442 153.473 422.601 156.63C425.759 159.787 427.538 164.07 427.545 168.539V168.539Z" fill="#504F60"/>
<path opacity="0.1" d="M426.721 240.638V303.004H366.313C358.126 302.893 350.311 299.559 344.561 293.724C338.81 287.888 335.586 280.019 335.586 271.821C335.586 263.623 338.81 255.754 344.561 249.918C350.311 244.082 358.126 240.749 366.313 240.638H426.721Z" fill="black"/>
<path d="M427.545 238.976V301.353H367.138C358.95 301.243 351.136 297.909 345.385 292.073C339.634 286.237 336.41 278.369 336.41 270.17C336.41 261.972 339.634 254.104 345.385 248.268C351.136 242.432 358.95 239.098 367.138 238.988L427.545 238.976Z" fill="#33323D"/>
<path opacity="0.1" d="M370.034 283.983C376.74 283.983 382.177 278.539 382.177 271.824C382.177 265.109 376.74 259.665 370.034 259.665C363.327 259.665 357.89 265.109 357.89 271.824C357.89 278.539 363.327 283.983 370.034 283.983Z" fill="black"/>
<path d="M370.858 282.332C377.565 282.332 383.002 276.889 383.002 270.173C383.002 263.458 377.565 258.015 370.858 258.015C364.151 258.015 358.714 263.458 358.714 270.173C358.714 276.889 364.151 282.332 370.858 282.332Z" fill="#13B3FF"/>
<path d="M532.4 238.439C532.88 243.646 528.945 248.699 530.091 253.798C530.34 254.889 530.808 255.917 530.978 257.02C531.452 260.05 529.651 262.915 527.929 265.448L513.138 287.177C512.545 288.132 511.836 289.009 511.026 289.788C508.203 292.309 503.958 292.049 500.243 292.801C497.632 293.332 495.166 294.423 493.017 296C492.927 296.077 492.87 296.186 492.857 296.303C492.845 296.421 492.878 296.539 492.949 296.633C493.563 297.47 494.376 298.14 495.315 298.582C496.254 299.023 497.288 299.222 498.324 299.16C498.713 299.674 498.324 300.426 497.759 300.794C496.963 301.359 495.874 301.495 495.715 302.84C495.659 303.31 495.754 303.785 495.986 304.197C496.582 305.11 497.509 305.757 498.572 306C503.693 307.566 509.225 304.813 513.059 301.065C516.892 297.317 519.641 292.586 523.401 288.771C525.485 286.662 527.85 284.853 529.995 282.807C534.275 278.726 537.6 273.763 540.812 268.794C541.778 267.296 542.749 265.759 543.155 264.023C543.562 262.288 543.37 260.536 543.827 258.857C544.426 256.652 546.035 254.9 547.373 253.052C549.998 249.434 551.748 245.008 551.404 240.554C551.059 236.099 548.298 231.696 544.098 230.181C542.796 229.658 541.36 229.57 540.005 229.932C538.283 230.464 537.013 231.888 535.839 233.25L533.016 236.501C532.312 237.214 531.756 238.059 531.379 238.988C531.198 239.454 531.155 239.963 531.255 240.453C531.355 240.943 531.594 241.394 531.943 241.752" fill="#FBBEBE"/>
<path opacity="0.05" d="M532.4 238.439C532.88 243.646 528.945 248.699 530.091 253.798C530.34 254.889 530.808 255.917 530.978 257.02C531.452 260.05 529.651 262.915 527.929 265.448L513.138 287.177C512.545 288.132 511.836 289.009 511.026 289.788C508.203 292.309 503.958 292.049 500.243 292.801C497.632 293.332 495.166 294.423 493.017 296C492.927 296.077 492.87 296.186 492.857 296.303C492.845 296.421 492.878 296.539 492.949 296.633C493.563 297.47 494.376 298.14 495.315 298.582C496.254 299.023 497.288 299.222 498.324 299.16C498.713 299.674 498.324 300.426 497.759 300.794C496.963 301.359 495.874 301.495 495.715 302.84C495.659 303.31 495.754 303.785 495.986 304.197C496.582 305.11 497.509 305.757 498.572 306C503.693 307.566 509.225 304.813 513.059 301.065C516.892 297.317 519.641 292.586 523.401 288.771C525.485 286.662 527.85 284.853 529.995 282.807C534.275 278.726 537.6 273.763 540.812 268.794C541.778 267.296 542.749 265.759 543.155 264.023C543.562 262.288 543.37 260.536 543.827 258.857C544.426 256.652 546.035 254.9 547.373 253.052C549.998 249.434 551.748 245.008 551.404 240.554C551.059 236.099 548.298 231.696 544.098 230.181C542.796 229.658 541.36 229.57 540.005 229.932C538.283 230.464 537.013 231.888 535.839 233.25L533.016 236.501C532.312 237.214 531.756 238.059 531.379 238.988C531.198 239.454 531.155 239.963 531.255 240.453C531.355 240.943 531.594 241.394 531.943 241.752" fill="black"/>
<path d="M543.596 372.463C540.366 374.436 536.341 374.555 532.587 374.097C531.983 374.024 531.266 373.978 530.893 374.447C530.329 375.126 530.995 376.143 531.683 376.669C533.898 378.334 536.5 379.406 539.243 379.784C541.693 380.131 544.165 380.296 546.639 380.275C553.413 380.394 560.188 380.507 566.855 379.535C567.25 379.505 567.635 379.393 567.985 379.207C568.414 378.905 568.713 378.45 568.82 377.935C569.277 376.194 568.397 374.329 567.064 373.119C565.732 371.909 564.021 371.237 562.35 370.587L556.479 368.297C555.101 367.76 552.894 366.336 551.398 366.449C548.586 366.652 545.927 371.095 543.596 372.463Z" fill="#3F3D56"/>
<path opacity="0.05" d="M543.596 372.463C540.366 374.436 536.341 374.555 532.587 374.097C531.983 374.024 531.266 373.978 530.893 374.447C530.329 375.126 530.995 376.143 531.683 376.669C533.898 378.334 536.5 379.406 539.243 379.784C541.693 380.131 544.165 380.296 546.639 380.275C553.413 380.394 560.188 380.507 566.855 379.535C567.25 379.505 567.635 379.393 567.985 379.207C568.414 378.905 568.713 378.45 568.82 377.935C569.277 376.194 568.397 374.329 567.064 373.119C565.732 371.909 564.021 371.237 562.35 370.587L556.479 368.297C555.101 367.76 552.894 366.336 551.398 366.449C548.586 366.652 545.927 371.095 543.596 372.463Z" fill="black"/>
<path d="M547.711 294.423C545.267 297.679 542.738 301.438 543.342 305.468C543.669 307.639 544.883 309.555 545.775 311.562C546.983 314.286 547.615 317.214 548.236 320.131C549.151 324.393 550.071 328.667 550.63 332.997C551.268 337.886 548.27 352.035 547.994 356.958C547.926 358.145 547.785 359.428 546.96 360.282C546.639 360.621 546.21 360.892 546.063 361.333C545.977 361.758 546.047 362.2 546.26 362.577C547.638 365.686 550.455 368.003 553.6 369.326C556.744 370.649 564.326 372.933 567.753 373.051C568.205 373.101 568.662 373.041 569.085 372.876C569.541 372.598 569.9 372.185 570.113 371.695C572.569 366.992 570.209 350.271 570.243 344.963C570.277 340.537 571.321 336.14 571.129 331.719C570.971 328.169 570 324.699 569.678 321.16C569.114 315.36 570.175 309.533 571.242 303.801C572.055 299.403 572.874 295.005 573.918 290.664C574.556 288.013 575.296 285.339 576.741 283.039C577.87 281.213 579.456 279.687 580.772 277.951C584.423 273.158 586.045 267.12 585.288 261.14C585.209 260.575 576.82 263.271 576.08 263.594C573.063 264.873 570.286 266.661 567.872 268.879C565.93 270.733 564.4 273.209 562.7 275.283C560.295 278.219 557.92 281.175 555.576 284.152C552.9 287.555 550.278 290.979 547.711 294.423Z" fill="#464353"/>
<path opacity="0.05" d="M547.711 294.225C545.267 297.481 542.738 301.246 543.342 305.27C543.669 307.447 544.883 309.363 545.775 311.37C546.983 314.089 547.615 317.022 548.236 319.933C549.151 324.201 550.071 328.474 550.63 332.799C551.268 337.694 548.27 351.837 547.994 356.76C547.926 357.947 547.785 359.236 546.96 360.09C546.639 360.423 546.21 360.695 546.063 361.135C545.976 361.56 546.046 362.002 546.26 362.379C547.638 365.494 550.455 367.806 553.6 369.162C556.744 370.519 564.326 371.7 567.753 371.813C568.205 371.863 568.662 371.803 569.085 371.638C569.542 371.363 569.901 370.952 570.113 370.462C572.569 365.759 570.209 350.113 570.243 344.799C570.277 340.368 571.321 335.976 571.129 331.55C570.971 328 570 324.529 569.678 320.996C569.114 315.191 570.175 309.363 571.242 303.631C572.055 299.239 572.874 294.841 573.918 290.494C574.556 287.843 575.296 285.17 576.741 282.869C577.87 281.043 579.456 279.517 580.772 277.782C584.424 272.989 586.046 266.951 585.288 260.971C585.209 260.405 576.82 263.102 576.08 263.424C573.064 264.707 570.288 266.497 567.872 268.715C565.93 270.563 564.4 273.039 562.7 275.114C560.295 278.049 557.92 281.007 555.576 283.988C552.9 287.365 550.278 290.777 547.711 294.225Z" fill="black"/>
<path d="M520.511 222.714C528.078 222.714 534.213 216.572 534.213 208.995C534.213 201.418 528.078 195.276 520.511 195.276C512.944 195.276 506.809 201.418 506.809 208.995C506.809 216.572 512.944 222.714 520.511 222.714Z" fill="#FBBEBE"/>
<path d="M532.852 208.418C534.118 210.44 535.778 212.186 537.732 213.551C539.687 214.917 541.896 215.874 544.228 216.366L543.195 220.125C541.411 226.58 539.407 233.409 534.427 237.885C534.992 235.698 534.269 233.363 533.038 231.464C531.808 229.565 530.08 228.073 528.386 226.597L520.5 219.757C520.272 219.572 520.08 219.346 519.935 219.09C519.74 218.608 519.74 218.069 519.935 217.587C520.94 214.455 523.808 212.5 526.145 210.385C527.318 209.292 528.365 208.071 529.267 206.745C530.842 204.495 531.819 206.756 532.852 208.418Z" fill="#FBBEBE"/>
<path d="M502.462 195.202L502.151 192.625C504.314 193.19 506.369 191.347 507.752 189.442C509.135 187.537 510.417 185.293 512.522 184.496C515.08 183.535 517.79 185.061 520.234 186.35C522.971 187.871 525.975 188.85 529.081 189.233C529.576 189.25 530.068 189.329 530.543 189.471C532.135 190.036 532.892 192.037 533.123 193.851C533.355 195.666 533.292 197.593 534.077 199.21C534.642 200.437 535.692 201.347 536.335 202.556C538.029 205.801 536.392 210.238 538.159 213.421L533.767 209.39C533.366 209.023 532.801 208.639 532.355 208.95C532.005 209.198 531.977 209.735 531.836 210.165C531.412 211.42 529.843 211.793 528.708 211.295C527.574 210.798 526.744 209.718 525.885 208.735C523.943 206.44 521.629 204.422 518.919 203.444C517.731 202.999 516.462 202.813 515.197 202.896C513.932 202.98 512.699 203.333 511.58 203.93C509.53 205.089 508.029 207.791 505.516 207.887C502.072 208.017 500.638 201.595 499.046 199.057C499.629 198.618 500.039 197.988 500.204 197.277C500.369 196.566 500.279 195.82 499.95 195.168C500.181 195.072 502.411 194.807 502.462 195.202Z" fill="#464353"/>
<path d="M332.987 114.997C331.886 115.978 330.869 117.048 329.944 118.197C329.014 119.361 328.519 120.815 328.544 122.306C328.549 122.739 328.687 123.159 328.939 123.51C329.068 123.678 329.246 123.802 329.449 123.863C329.651 123.925 329.868 123.922 330.069 123.855C330.295 123.739 330.49 123.568 330.633 123.357C331.23 122.64 331.863 121.953 332.53 121.3C332.773 121.057 333.095 120.802 333.422 120.893C333.569 120.945 333.701 121.032 333.806 121.147C334.186 121.476 334.462 121.908 334.602 122.391C334.8 123.256 334.297 124.121 333.727 124.799C333.157 125.477 332.485 126.127 332.253 126.981C332.166 127.206 332.166 127.456 332.253 127.682C332.363 127.845 332.515 127.974 332.694 128.055C333.502 128.5 334.399 128.763 335.32 128.823C336.241 128.884 337.163 128.741 338.023 128.405C339.152 127.947 340.157 127.162 341.32 126.755C341.824 126.617 342.312 126.427 342.777 126.189C343.109 125.968 343.395 125.682 343.617 125.349C343.839 125.017 343.993 124.643 344.07 124.251C344.216 123.466 344.245 122.664 344.154 121.871C344.014 118.8 343.357 115.775 342.212 112.923C342.146 112.739 342.033 112.575 341.885 112.448C341.715 112.344 341.519 112.291 341.32 112.295C339.875 112.143 337.504 111.402 336.109 111.939C335.622 112.207 335.201 112.582 334.879 113.036C334.619 113.324 332.987 114.619 332.987 114.997Z" fill="#A1616A"/>
<path d="M332.53 113.72C332.53 112.34 330.836 109.011 333.529 108.791C333.529 107.315 331.446 106.399 331.836 104.834C331.96 104.314 332.4 103.89 332.451 103.358C332.62 101.849 329.899 101.029 330.351 99.5824C330.52 99.0171 331.119 98.6892 331.249 98.1296C331.553 96.8239 329.222 96.2416 329.177 94.902C329.177 94.4498 329.431 94.0258 329.408 93.5736C329.408 93.0083 328.917 92.5788 328.646 92.087C327.94 90.8264 328.285 88.8763 326.997 88.2262C327.85 88.2997 328.127 87.0335 327.777 86.2591C327.426 85.4847 326.71 84.812 326.704 83.9528C326.746 83.6415 326.746 83.3258 326.704 83.0145C326.467 82.1892 325.117 82.1214 324.892 81.3187C324.862 81.0106 324.853 80.701 324.863 80.3917C324.773 79.7529 324.118 79.3459 323.503 79.165C322.864 79.0563 322.248 78.8363 321.685 78.515C321.29 78.2154 320.832 77.718 320.409 77.9497C320.251 78.0458 320.172 78.2267 320.053 78.3624C319.545 78.9559 318.574 78.6959 317.936 78.2606C316.051 76.9775 315.113 74.6768 314.713 72.4328C314.312 70.1887 314.323 67.8711 313.821 65.6496C313.667 64.9573 313.464 64.2771 313.211 63.6146C312.996 63.0494 312.308 62.1619 312.262 61.591C312.161 60.2909 314.848 61.1784 315.87 61.3084C316.862 61.4054 317.843 61.5946 318.8 61.8736C319.822 62.26 320.822 62.6997 321.798 63.1907C325.874 64.9939 330.797 65.2143 334.071 68.2442C335.15 69.239 336.059 70.5448 337.459 70.997C338.101 71.1202 338.734 71.2845 339.356 71.4888C340.908 72.218 341.151 74.2812 341.998 75.7735C342.264 76.1676 342.496 76.5836 342.692 77.017C342.855 77.5282 342.932 78.0633 342.918 78.5998L343.036 82.5171C343.228 89.0798 343.42 95.6594 342.72 102.183C342.495 104.336 342.156 106.552 342.794 108.621C342.963 109.186 343.2 109.718 343.358 110.288C343.498 110.958 343.57 111.64 343.573 112.323L343.663 114.861C343.695 115.059 343.65 115.261 343.539 115.427C343.445 115.503 343.334 115.558 343.216 115.586C343.098 115.615 342.975 115.616 342.856 115.591C339.327 115.274 335.759 113.284 332.428 114.488" fill="#464353"/>
<path d="M493.553 308.736C516.614 308.736 535.308 306.03 535.308 302.693C535.308 299.356 516.614 296.65 493.553 296.65C470.493 296.65 451.799 299.356 451.799 302.693C451.799 306.03 470.493 308.736 493.553 308.736Z" fill="#504F60"/>
<path d="M529.476 302.987C528.742 299.838 528.285 297.074 528.285 297.074C528.285 297.074 528.454 293.649 526.919 291.077V290.218V283.887C527.356 282.737 527.89 281.627 528.516 280.569C529.645 278.579 528.516 271.287 528.516 271.287C528.516 271.287 524.299 261.005 525.321 254.482C526.343 247.959 516.661 225.518 516.661 225.518C516.72 223.353 517.025 221.203 517.569 219.107C517.673 218.667 517.715 218.214 517.694 217.762C517.694 217.706 517.694 217.655 517.694 217.598C517.694 217.542 517.694 217.632 517.694 217.649C517.547 213.347 514.148 205.287 514.148 205.287L514.606 189.923C514.606 189.923 516.773 180.879 513.239 168.697C512.003 164.452 511.213 161.055 510.71 158.432C510.654 158.138 510.597 157.867 510.552 157.579C517.829 156.448 523.39 155.544 523.39 155.544C523.39 155.544 519.167 137.857 516.316 134.759C513.465 131.661 511.184 121.933 511.184 121.933C511.184 121.933 509.7 109.446 512.099 105.795C514.498 102.143 514.837 95.8461 514.837 95.8461C514.837 95.8461 520.308 91.8893 520.996 90.0974C521.685 88.3055 522.82 84.3487 522.82 82.2515C522.82 80.1544 522.137 78.2947 522.363 77.1642C522.588 76.0336 520.765 71.8563 521.679 69.8666C521.916 69.2554 522.039 68.6059 522.041 67.9504C522.043 67.9316 522.043 67.9126 522.041 67.8938C522.041 67.8938 522.041 67.8938 522.041 67.8938C522.049 66.1527 521.889 64.4148 521.561 62.7047C519.978 61.3668 518.132 60.3786 516.141 59.8049L516.023 59.3301L515.712 58.0865C515.539 57.9718 515.36 57.8662 515.176 57.77V57.3178L515.125 55.5202L515.983 51.4843C517.677 44.4637 508.311 43.4179 508.311 43.4179C507.743 42.341 506.798 41.5118 505.657 41.0891C503.777 40.4277 505.347 51.6482 506.222 52.3943C506.882 52.9596 508.926 56.4529 509.914 58.1826L510.072 58.4653C509.918 58.6045 509.774 58.7557 509.643 58.9175L509.999 61.3538L510.055 61.7268C509.434 62.4986 508.93 63.3576 508.559 64.2762C508.559 64.2762 510.253 66.1528 509.931 68.233C509.609 70.3132 510.456 72.953 510.496 73.0943C510.394 72.9756 509.191 71.6755 507.989 71.992C506.786 72.3086 503.427 73.3204 503.427 73.3204C503.427 73.3204 500.921 73.7613 501.169 74.3152C501.418 74.8692 499.475 77.2998 499.475 77.2998L492.735 70.9011C492.667 70.7089 492.593 70.5167 492.537 70.3358C492.262 69.4132 492.073 68.467 491.972 67.5095C492.707 67.3347 493.428 67.1061 494.129 66.8255C494.837 66.582 495.477 66.1709 495.992 65.6271C496.675 64.8188 496.805 63.7222 497.082 62.716C497.612 60.7489 498.775 59.0023 499.583 57.1312C500.95 53.9696 501.39 50.4838 500.853 47.0809C500.749 46.0322 500.395 45.0239 499.82 44.1415C498.719 42.6266 496.72 42.0104 495.269 40.8008C493.819 39.5911 492.881 37.7427 491.188 36.8439C489.658 36.0243 487.8 36.1204 486.073 36.403C482.699 36.9601 479.458 38.1409 476.515 39.885C475.533 40.4503 474.449 41.1456 473.319 40.9364C472.348 40.7612 471.626 39.9868 471.016 39.2406C471.023 39.2098 471.032 39.1795 471.044 39.1502C471.017 39.1227 470.992 39.0924 470.971 39.0598C470.257 40.6473 469.898 42.3722 469.921 44.1132C469.921 44.3845 469.921 44.6785 469.955 44.9215V45.2042C469.955 45.2833 469.955 45.3625 469.955 45.4359C469.955 45.5564 469.937 45.6763 469.904 45.7921C469.762 46.1378 469.546 46.4484 469.272 46.7021C469.064 46.9378 468.876 47.1891 468.707 47.4539C468.707 47.3635 468.764 47.273 468.797 47.1769C468.367 47.8064 468.124 48.5455 468.097 49.308C468.066 49.863 468.248 50.4091 468.605 50.8342C468.943 51.1628 469.312 51.4581 469.706 51.716C469.572 52.4622 469.504 53.2189 469.503 53.9771C469.516 56.2248 470.108 58.4313 471.221 60.3831C472.335 62.3348 473.933 63.9658 475.86 65.1184C475.939 65.3049 476.012 65.4971 476.086 65.6837C476.95 67.9447 477.599 70.6015 477.311 73.0321C477.311 73.2073 477.26 73.3882 477.232 73.5634C477.204 73.7387 477.063 73.75 476.989 73.8461C476.989 73.8461 465.85 73.9591 463.231 71.585C460.611 69.2109 456.614 77.3903 456.614 77.3903C456.614 77.3903 452.623 78.1647 451.821 77.3903C451.019 76.6159 446.351 77.2829 446.351 77.2829C444.438 75.5796 441.949 74.67 439.39 74.7392C437.839 73.5594 436.128 72.6077 434.309 71.9129V71.9129L434.184 71.8676C433.381 71.5746 432.523 71.4664 431.672 71.5511C431.672 71.5511 426.196 67.029 424.598 64.5871C423 62.1451 415.396 53.1292 415.362 53.0896V52.6544L415.277 51.3429C415.051 51.3784 414.823 51.3973 414.594 51.3995C414.555 51.2695 414.498 51.1168 414.442 50.9416C414.004 49.6624 413.464 48.4205 412.827 47.2278C412.827 47.2278 412.827 45.5716 413.307 45.1533C413.787 44.735 413.109 38.6584 413.109 38.6584C413.109 38.6584 408.175 27.1101 403.755 35.7304C403.755 35.7304 395.399 41.3095 402.411 47.81C402.411 47.81 405.234 49.1667 405.606 50.2407C405.866 50.9359 406.815 52.8861 407.453 54.1975L407.741 54.7628L407.661 54.8306L407.763 55.9159L407.808 56.3342C406.487 57.086 405.59 57.8322 405.81 58.3918C406.199 59.3494 406.466 60.3521 406.606 61.3764C406.606 61.3764 416.305 73.5408 417.558 78.7356C417.558 78.7356 443.567 94.2125 452.12 95.3148L450.607 103.031C450.387 105.124 450.274 107.228 450.269 109.333C450.382 110.99 449.241 118.508 449.241 118.508C449.241 118.508 447.756 129.564 446.503 131.113C445.25 132.662 445.476 139.292 445.476 139.292C445.18 142.466 444.613 145.609 443.782 148.687C442.529 152.887 443.437 158.087 443.437 158.087C443.437 158.087 439.107 168.036 449.484 161.292C449.484 161.292 454.565 160.976 460.448 160.772C460.448 160.964 460.448 161.162 460.448 161.338C460.448 162.095 460.448 162.915 460.408 163.774C460.329 169.472 460.295 177.34 460.555 183.264C461.012 193.767 464.208 214.551 464.208 214.551V225.014C464.001 225.996 463.899 226.996 463.903 227.999C463.835 231.68 464.814 235.305 466.725 238.451L467.527 245.415C467.527 245.415 469.401 250.005 469.435 252.763C469.428 252.986 469.402 253.207 469.356 253.425C469.283 253.776 469.253 254.134 469.266 254.493C469.159 257.658 471.061 265.233 471.061 265.233C471.061 265.233 471.174 272.858 472.315 273.305C473.291 273.684 471.01 277.697 470.333 278.85C470.315 278.78 470.302 278.708 470.293 278.635L470.152 278.861C469.917 279.479 469.796 280.134 469.797 280.795C469.732 281.315 469.817 281.844 470.041 282.318C470.265 282.792 470.619 283.193 471.061 283.474C473.229 284.802 474.392 285.905 472.552 286.346C471.875 286.451 471.204 286.592 470.542 286.769C470.542 286.685 470.474 286.594 470.446 286.515C470.186 286.617 469.97 286.805 469.833 287.048C469.696 287.291 469.647 287.574 469.695 287.849C469.712 288.746 469.943 289.625 470.367 290.415C472.19 294.508 473.455 296.068 473.455 296.068L474.33 295.972C474.201 296.307 474.03 296.624 473.822 296.916C473.489 297.39 473.048 297.778 472.535 298.046C472.057 298.333 471.524 298.516 470.971 298.584C470.353 298.604 469.745 298.754 469.189 299.025C468.633 299.295 468.139 299.681 467.742 300.155C466.613 301.63 465.89 303.637 468.137 305.401L476.295 308.227C476.295 308.227 490.33 310.053 489.584 306.899C488.839 303.744 488.388 300.986 488.388 300.986C488.448 299.06 488.061 297.146 487.258 295.395C487.111 295.11 486.945 294.834 486.762 294.57L487.258 294.519C487.258 294.519 488.286 287.55 489.652 286.227C489.968 285.922 490.042 285.662 489.968 285.503C490.109 285.125 489.748 284.904 489.291 284.774L489.189 285.051C488.742 284.954 488.286 284.902 487.829 284.898C487.829 284.898 487.371 281.253 488.856 279.924C488.976 279.773 489.063 279.598 489.113 279.412C489.162 279.225 489.173 279.03 489.144 278.839C489.155 278.339 489.102 277.839 488.986 277.352C488.971 277.384 488.954 277.414 488.935 277.443C488.19 274.13 485.661 268.868 485.661 268.868C485.661 268.868 485.548 265.555 486.462 264.227C487.377 262.898 486.344 246.206 486.344 246.206C486.344 246.206 486.688 238.14 485.661 234.381C484.633 230.622 486.914 226.196 486.914 226.196C486.914 226.196 486.914 226.111 486.914 225.958V225.902L486.784 224.63C486.781 224.656 486.781 224.683 486.784 224.709C486.553 222.573 486.118 218.7 485.796 216.914C485.339 214.371 485.915 202.217 485.915 202.217L487.964 197.017L491.617 205.976L495.495 217.915C495.495 217.915 497.415 220.436 497.46 223.002C497.46 223.126 497.46 223.251 497.46 223.375C497.429 223.64 497.414 223.906 497.415 224.172C497.346 225.681 497.759 227.172 498.595 228.429C498.595 228.429 499.622 234.081 501.22 235.5C502.818 236.919 502.818 239.7 502.818 239.7C502.818 239.7 504.754 247.885 505.64 249.31C506.408 250.519 506.448 253.832 506.442 254.866C506.442 255.053 506.442 255.16 506.442 255.16C506.442 255.16 506.713 258.088 506.702 260.541C506.702 260.847 506.702 261.14 506.702 261.417C506.704 261.397 506.704 261.376 506.702 261.355C506.701 262.026 506.622 262.693 506.465 263.345L506.431 263.458C506.431 263.317 506.431 263.181 506.47 263.045C506.073 264.711 505.884 266.42 505.906 268.133C505.855 271.072 506.301 274.554 508.079 276.612C511.162 280.15 513.098 279.709 513.098 279.709C513.098 279.709 511.619 284.13 509.79 285.017C509.721 285.05 509.656 285.092 509.598 285.142C509.598 285.051 509.564 284.966 509.553 284.882C509.349 285.102 509.193 285.363 509.096 285.647C508.999 285.931 508.962 286.233 508.988 286.532C508.858 288.477 510.083 291.619 511.246 293.083C511.678 293.507 512.208 293.818 512.788 293.988C512.696 294.053 512.6 294.111 512.5 294.163C512.297 294.275 512.088 294.375 511.873 294.463C511.576 294.589 511.262 294.671 510.942 294.706C510.323 294.722 509.714 294.871 509.157 295.142C508.6 295.413 508.108 295.8 507.712 296.277C506.583 297.747 505.861 299.754 508.108 301.517L516.265 304.344C516.265 304.344 530.21 306.135 529.476 302.987Z" fill="url(#paint0_linear)"/>
<path d="M475.894 308.21L467.99 305.384C465.811 303.62 466.505 301.613 467.606 300.138C467.985 299.667 468.46 299.284 469 299.013C469.539 298.742 470.131 298.589 470.734 298.567C471.269 298.498 471.783 298.315 472.241 298.03C472.742 297.757 473.172 297.37 473.494 296.899C474.071 295.983 474.382 294.924 474.392 293.841C474.392 293.841 483.064 291.297 485.435 293.841C485.858 294.301 486.212 294.821 486.485 295.384C487.273 297.14 487.658 299.05 487.614 300.975C487.614 300.975 488.054 303.733 488.771 306.887C489.488 310.041 475.894 308.21 475.894 308.21Z" fill="#2D293D"/>
<path d="M514.532 304.31L506.628 301.483C504.449 299.72 505.144 297.713 506.244 296.243C506.62 295.771 507.094 295.386 507.633 295.115C508.172 294.843 508.764 294.692 509.367 294.672C509.679 294.64 509.984 294.558 510.27 294.429C510.479 294.341 510.682 294.241 510.88 294.129C513.087 292.914 513.03 289.929 513.03 289.929C513.03 289.929 521.696 287.386 524.073 289.929C524.391 290.274 524.67 290.653 524.903 291.06C526.388 293.632 526.224 297.063 526.224 297.063C526.224 297.063 526.665 299.827 527.353 302.976C528.042 306.124 514.532 304.31 514.532 304.31Z" fill="#2D293D"/>
<path opacity="0.1" d="M485.441 293.835C485.864 294.296 486.217 294.815 486.491 295.378L473.506 296.888C474.082 295.971 474.393 294.912 474.403 293.829C474.403 293.829 483.069 291.291 485.441 293.835Z" fill="black"/>
<path opacity="0.1" d="M524.914 291.071V293.507C522.893 296.837 513.121 296.108 510.281 294.44C510.49 294.352 510.693 294.252 510.891 294.141C513.098 292.925 513.042 289.941 513.042 289.941C513.042 289.941 521.708 287.397 524.085 289.941C524.403 290.285 524.681 290.664 524.914 291.071V291.071Z" fill="black"/>
<path d="M526.456 280.569C525.851 281.63 525.336 282.74 524.914 283.887V292.62C522.701 296.266 511.224 295.051 509.671 293.061C508.119 291.071 506.499 285.893 508.243 284.995C509.988 284.096 511.444 279.687 511.444 279.687C511.444 279.687 509.564 280.128 506.583 276.589C503.602 273.05 504.489 265.205 505.042 263.328C505.595 261.451 505.042 255.149 505.042 255.149C505.042 255.149 505.155 250.723 504.274 249.287C503.394 247.851 501.514 239.677 501.514 239.677C501.514 239.677 501.514 236.913 499.967 235.477C498.42 234.042 497.426 228.4 497.426 228.4C496.522 226.991 496.133 225.311 496.325 223.646C496.653 220.882 494.445 217.898 494.445 217.898L490.691 205.954L487.157 197L485.17 202.195C485.17 202.195 484.605 214.354 485.062 216.892C485.52 219.43 486.191 226.179 486.191 226.179C486.191 226.179 483.984 230.599 484.978 234.358C485.971 238.117 485.61 246.195 485.61 246.195C485.61 246.195 486.604 262.881 485.717 264.21C484.831 265.538 484.944 268.856 484.944 268.856C484.944 268.856 489.46 278.579 488.038 279.907C486.615 281.236 487.044 284.881 487.044 284.881C487.044 284.881 490.132 284.881 488.811 286.21C487.49 287.538 486.491 294.502 486.491 294.502L473.139 296.068C473.139 296.068 471.919 294.525 470.152 290.415C468.385 286.306 470.48 286.769 472.258 286.323C474.036 285.876 472.913 284.78 470.813 283.451C468.713 282.123 469.932 279.138 469.932 279.138C469.932 279.138 473.133 273.723 472.027 273.282C470.92 272.841 470.813 265.21 470.813 265.21C470.813 265.21 468.605 256.166 469.159 253.713C469.712 251.26 467.392 245.426 467.392 245.426L466.618 238.462C464.256 234.51 463.394 229.839 464.191 225.303V214.563C464.191 214.563 461.097 193.784 460.656 183.281C460.374 176.554 460.453 167.374 460.544 161.648C460.6 158.438 460.656 156.307 460.656 156.307L508.35 151.332C508.35 151.332 508.305 153.537 509.214 158.426C509.705 161.049 510.467 164.446 511.664 168.692C515.086 180.85 512.991 189.912 512.991 189.912L512.545 205.281C512.545 205.281 516.74 215.558 515.859 219.096C515.327 221.197 515.027 223.351 514.967 225.517C514.967 225.517 524.35 247.958 523.356 254.482C522.363 261.005 526.444 271.287 526.444 271.287C526.444 271.287 527.562 278.579 526.456 280.569Z" fill="#464353"/>
<path opacity="0.05" d="M499.188 222.98L513.708 221.041C513.708 221.041 505.482 229.446 499.188 222.98Z" fill="black"/>
<path opacity="0.1" d="M511.608 206.835C511.608 206.835 512.105 211.979 508.96 213.912C508.96 213.912 514.589 213.031 511.608 206.835Z" fill="black"/>
<path opacity="0.1" d="M510.716 190.477C510.716 190.477 498.578 200.482 494.163 199.651C489.748 198.82 510.716 190.477 510.716 190.477Z" fill="black"/>
<path opacity="0.1" d="M481.189 227.671C481.189 227.671 471.97 229.768 471.694 233.476C471.417 237.184 481.189 227.671 481.189 227.671Z" fill="black"/>
<path opacity="0.05" d="M483.216 273.774C483.216 273.774 470.192 276.205 473.89 277.861C477.588 279.517 483.662 280.845 483.662 280.845C483.662 280.845 487.868 281.066 483.216 273.774Z" fill="black"/>
<g opacity="0.05">
<path opacity="0.05" d="M471.259 280.495C470.931 280.29 470.654 280.014 470.448 279.687C470.242 279.36 470.112 278.991 470.068 278.607L469.932 278.839C469.932 278.839 468.718 281.823 470.818 283.146C471.056 283.299 471.287 283.451 471.496 283.598C471.885 283.525 472.303 283.468 472.704 283.367C474.482 282.926 473.359 281.823 471.259 280.495Z" fill="black"/>
<path opacity="0.05" d="M488.037 279.607C488.399 279.28 488.388 278.432 488.167 277.346C487.603 278.2 487.439 279.534 487.428 280.546C487.565 280.195 487.772 279.875 488.037 279.607V279.607Z" fill="black"/>
<path opacity="0.05" d="M486.033 224.613C485.554 225.921 485.257 227.289 485.153 228.677C485.404 227.718 485.743 226.783 486.163 225.885L486.033 224.613Z" fill="black"/>
<path opacity="0.05" d="M515.865 218.814C515.951 218.416 515.991 218.01 515.983 217.604C515.819 218.429 515.706 219.192 515.622 219.865C515.695 219.52 515.774 219.192 515.865 218.814Z" fill="black"/>
<path opacity="0.05" d="M485.723 263.916C485.904 263.645 486.005 262.729 486.05 261.457C485.642 262.441 485.425 263.495 485.412 264.56C485.489 264.334 485.594 264.117 485.723 263.916V263.916Z" fill="black"/>
<path opacity="0.05" d="M488.433 284.763C487.748 286.98 487.24 289.248 486.914 291.546L473.562 293.089C473.562 293.089 472.343 291.546 470.576 287.437C470.433 287.119 470.307 286.795 470.198 286.464C469.396 286.832 469.068 287.663 470.13 290.088C471.897 294.18 473.122 295.74 473.122 295.74L486.474 294.191C486.474 294.191 487.467 287.227 488.788 285.899C489.466 285.26 489.048 284.927 488.433 284.763Z" fill="black"/>
<path opacity="0.05" d="M470.818 264.911C470.818 264.911 470.926 272.536 472.032 272.977C472.597 271.717 472.964 270.518 472.467 270.32C471.338 269.879 471.253 262.248 471.253 262.248C471.253 262.248 469.046 253.204 469.599 250.751C470.152 248.298 467.832 242.464 467.832 242.464L467.059 235.5C464.696 231.548 463.835 226.877 464.631 222.341V211.601C464.631 211.601 461.537 190.822 461.097 180.319C460.815 173.592 460.894 164.413 460.984 158.686C460.984 157.652 461.018 156.736 461.035 155.962L460.657 156.001C460.657 156.001 460.594 158.127 460.544 161.343C460.453 167.069 460.369 176.249 460.657 182.97C461.097 193.473 464.185 214.258 464.185 214.258V224.998C463.393 229.532 464.256 234.201 466.618 238.151L467.386 245.115C467.386 245.115 469.706 250.971 469.153 253.408C468.6 255.844 470.818 264.911 470.818 264.911Z" fill="black"/>
<path opacity="0.05" d="M510.123 290.11C509.038 288.538 508.315 286.744 508.006 284.859C506.645 286.091 508.209 290.873 509.7 292.773C511.241 294.762 522.724 295.978 524.943 292.326V290.223C521.934 293.18 511.58 291.993 510.123 290.11Z" fill="black"/>
<path opacity="0.05" d="M526.902 277.618C526.296 278.68 525.779 279.789 525.355 280.936V282.502C525.609 281.937 525.964 281.179 526.484 280.286C526.833 279.416 526.999 278.482 526.969 277.544C526.969 277.544 526.919 277.595 526.902 277.618Z" fill="black"/>
<path opacity="0.05" d="M510.8 279.365C511.22 278.513 511.584 277.635 511.89 276.736C511.89 276.736 510.01 277.177 507.029 273.639C504.861 271.067 504.737 266.205 505.048 263.029C504.483 264.911 503.608 272.757 506.589 276.295C508.537 278.607 510.01 279.218 510.8 279.365Z" fill="black"/>
<path opacity="0.05" d="M505.042 254.849C505.237 257.027 505.31 259.214 505.262 261.401C505.317 261.055 505.393 260.714 505.488 260.377C506.052 258.495 505.488 252.198 505.488 252.198C505.488 252.198 505.601 247.772 504.714 246.336C503.828 244.9 501.982 236.715 501.982 236.715C501.982 236.715 501.982 233.951 500.435 232.516C498.888 231.08 497.895 225.438 497.895 225.438C496.982 224.032 496.583 222.352 496.766 220.685C497.099 217.92 494.891 214.936 494.891 214.936L491.137 202.997L487.603 194.044L485.61 199.244C485.61 199.244 485.61 199.9 485.542 200.94L487.157 196.717L490.691 205.654L494.445 217.593C494.445 217.593 496.653 220.577 496.32 223.341C496.137 225.009 496.536 226.688 497.449 228.095C497.449 228.095 498.442 233.748 499.989 235.172C501.536 236.597 501.53 239.372 501.53 239.372C501.53 239.372 503.41 247.552 504.291 248.982C505.172 250.412 505.042 254.849 505.042 254.849Z" fill="black"/>
</g>
<path d="M514.312 51.4674L513.482 55.5034L513.533 57.3009L513.567 58.6236L508.96 59.0984L508.446 58.1432C507.492 56.4134 505.511 52.8975 504.873 52.3549C504.02 51.6426 502.502 40.4165 504.308 41.0835C505.42 41.5136 506.334 42.3414 506.871 43.4067C506.871 43.4067 515.944 44.4468 514.312 51.4674Z" fill="#FFCDD3"/>
<path opacity="0.1" d="M513.567 58.6233L508.96 59.0981L508.446 58.1428C509.066 57.4365 509.911 56.9672 510.837 56.8146C511.764 56.6621 512.714 56.8358 513.527 57.3062L513.567 58.6233Z" fill="black"/>
<path d="M514.73 60.8111L508.655 62.2186L508.525 61.3142L508.181 58.8779C508.181 58.8779 510.586 55.6672 514.064 58.0752L514.368 59.3132L514.73 60.8111Z" fill="#13B3FF"/>
<path d="M416.327 51.9082L409.841 55.3902L409.276 54.1692C408.661 52.8748 407.74 50.9246 407.486 50.2124C407.102 49.1384 404.398 47.7817 404.398 47.7817C397.624 41.2868 405.697 35.702 405.697 35.702C409.976 27.0818 414.73 38.6301 414.73 38.6301C414.73 38.6301 415.396 44.718 414.927 45.125C414.459 45.532 414.459 47.1995 414.459 47.1995C415.077 48.3942 415.6 49.636 416.023 50.9133C416.22 51.5294 416.327 51.9082 416.327 51.9082Z" fill="#FFCDD3"/>
<path opacity="0.1" d="M416.327 51.9082L409.841 55.3902L409.276 54.1692C410.191 53.4005 413.437 50.7776 414.504 50.885C415.013 50.9487 415.528 50.962 416.04 50.9246C416.22 51.5294 416.327 51.9082 416.327 51.9082Z" fill="black"/>
<path d="M416.988 53.8695L409.699 57.4645L409.553 55.8987L409.451 54.8134C409.451 54.8134 413.674 51.1901 414.922 51.3314C415.553 51.423 416.193 51.423 416.824 51.3314L416.909 52.6428L416.988 53.8695Z" fill="#13B3FF"/>
<path d="M496.647 78.2777C496.647 78.2777 464.874 81.8672 470.813 79.934C474.945 78.583 476.588 75.9771 476.933 73.0377C477.215 70.5902 476.583 67.9504 475.753 65.6893C475.006 63.6835 474.06 61.7576 472.93 59.9406C472.93 59.9406 497.206 46.5665 492.356 58.7253C491.609 60.5643 491.144 62.5065 490.979 64.4853C490.833 66.4518 491.045 68.4284 491.606 70.3188C492.521 73.3863 494.266 76.1406 496.647 78.2777V78.2777Z" fill="#FFCDD3"/>
<path opacity="0.1" d="M492.339 58.7082C491.592 60.5473 491.127 62.4894 490.962 64.4682C488.675 66.3958 486.169 66.2658 482.945 66.2658C480.472 66.2658 477.729 66.8649 475.753 65.6722C475.006 63.6664 474.06 61.7405 472.93 59.9235C472.93 59.9235 497.2 46.5494 492.339 58.7082Z" fill="black"/>
<path d="M482.516 67.1138C489.772 67.1138 495.653 61.2247 495.653 53.9601C495.653 46.6955 489.772 40.8064 482.516 40.8064C475.261 40.8064 469.379 46.6955 469.379 53.9601C469.379 61.2247 475.261 67.1138 482.516 67.1138Z" fill="#FFCDD3"/>
<path opacity="0.1" d="M496.647 78.2777C496.647 78.2777 464.874 81.8671 470.813 79.9339C474.945 78.5829 476.588 75.9771 476.933 73.0377C478.513 71.3419 481.692 70.0814 483.707 69.4257C485.571 68.7983 487.583 68.7647 489.466 69.3296C490.206 69.553 490.912 69.8803 491.56 70.3018C492.486 73.3806 494.247 76.1416 496.647 78.2777V78.2777Z" fill="black"/>
<path opacity="0.1" d="M514.73 60.811L508.655 62.2185L508.525 61.3141C509.176 60.4196 510.086 59.7475 511.131 59.3894C512.177 59.0314 513.307 59.0047 514.368 59.3131L514.73 60.811Z" fill="black"/>
<path opacity="0.1" d="M416.988 53.8695L409.699 57.4646L409.553 55.8988C411.913 54.6279 414.367 53.5376 416.892 52.6372L416.988 53.8695Z" fill="black"/>
<path opacity="0.1" d="M509.214 158.438C496.901 160.405 479.4 162.914 476.622 162.067C474.313 161.366 466.951 161.439 460.544 161.66C460.6 158.449 460.656 156.318 460.656 156.318L508.35 151.344C508.35 151.344 508.305 153.548 509.214 158.438Z" fill="black"/>
<path d="M521.488 155.543C521.488 155.543 480.969 162.508 476.622 161.196C472.275 159.885 449.947 161.304 449.947 161.304C439.898 168.047 444.092 158.098 444.092 158.098C444.092 158.098 443.212 152.904 444.425 148.704C445.241 145.62 445.798 142.474 446.091 139.298C446.091 139.298 445.871 132.662 447.084 131.113C448.298 129.564 449.738 118.513 449.738 118.513C449.738 118.513 450.839 110.995 450.732 109.339C450.624 107.683 451.059 103.036 451.059 103.036L452.499 95.2977C444.217 94.1954 419.043 78.7185 419.043 78.7185C417.829 73.5237 408.446 61.3649 408.446 61.3649C408.309 60.3425 408.05 59.3403 407.673 58.3803C407.012 56.6111 416.948 53.0725 416.948 53.0725C416.948 53.0725 424.344 62.1167 425.891 64.57C427.438 67.0232 432.733 71.534 432.733 71.534C433.556 71.4493 434.387 71.5577 435.161 71.8506L435.291 71.8901C437.066 72.5877 438.73 73.5398 440.231 74.7165C442.72 74.6573 445.135 75.5694 446.966 77.2601C446.966 77.2601 451.482 76.5931 452.267 77.3675C453.052 78.142 456.902 77.3675 456.902 77.3675C456.902 77.3675 460.764 69.1882 463.304 71.5623C465.845 73.9364 476.622 73.8233 476.622 73.8233C478.056 71.9127 481.551 70.5448 483.736 69.8665C485.599 69.2417 487.61 69.2081 489.494 69.7704C490.307 70.0132 491.071 70.3957 491.752 70.9009L498.307 77.311C498.307 77.311 500.181 74.8747 499.961 74.3264C499.741 73.7781 502.168 73.3316 502.168 73.3316C502.168 73.3316 505.369 72.3367 506.583 72.0032C507.797 71.6697 508.909 72.9867 509.011 73.1054C508.971 72.9641 508.141 70.2791 508.446 68.2442C508.751 66.2092 507.12 64.2873 507.12 64.2873C510.981 54.7796 519.704 62.7385 519.704 62.7385C519.704 62.7385 520.697 67.9333 519.816 69.923C518.936 71.9127 520.697 76.1127 520.477 77.2206C520.257 78.3285 520.923 80.2052 520.923 82.3079C520.923 84.4107 519.794 88.3845 519.156 90.1538C518.518 91.9231 513.194 95.9025 513.194 95.9025C513.194 95.9025 512.861 102.205 510.541 105.851C508.22 109.497 509.677 121.967 509.677 121.967C509.677 121.967 511.884 131.695 514.645 134.793C517.406 137.89 521.488 155.543 521.488 155.543Z" fill="#3F3D56"/>
<path opacity="0.1" d="M462.424 82.8055C462.424 82.8055 461.21 79.1595 460.103 78.8486C459.005 78.444 457.935 77.9643 456.902 77.4128L457.613 76.0505C457.613 76.0505 461.757 77.1811 462.424 78.4077C463.09 79.6343 462.424 82.8055 462.424 82.8055Z" fill="black"/>
<path opacity="0.1" d="M440.231 74.7391C440.01 75.8696 430.182 76.8362 430.182 76.8362L435.15 71.8506L435.274 71.8958C437.055 72.5971 438.725 73.555 440.231 74.7391V74.7391Z" fill="black"/>
<path d="M411.8 60.4492C412.286 60.4492 412.68 60.0544 412.68 59.5674C412.68 59.0803 412.286 58.6855 411.8 58.6855C411.313 58.6855 410.919 59.0803 410.919 59.5674C410.919 60.0544 411.313 60.4492 411.8 60.4492Z" fill="#575988"/>
<path d="M412.929 62.2187C413.415 62.2187 413.81 61.8239 413.81 61.3369C413.81 60.8499 413.415 60.4551 412.929 60.4551C412.442 60.4551 412.048 60.8499 412.048 61.3369C412.048 61.8239 412.442 62.2187 412.929 62.2187Z" fill="#575988"/>
<path d="M414.035 63.8522C414.522 63.8522 414.916 63.4574 414.916 62.9704C414.916 62.4834 414.522 62.0886 414.035 62.0886C413.549 62.0886 413.155 62.4834 413.155 62.9704C413.155 63.4574 413.549 63.8522 414.035 63.8522Z" fill="#575988"/>
<path d="M415.193 65.6159C415.679 65.6159 416.073 65.2211 416.073 64.7341C416.073 64.2471 415.679 63.8523 415.193 63.8523C414.706 63.8523 414.312 64.2471 414.312 64.7341C414.312 65.2211 414.706 65.6159 415.193 65.6159Z" fill="#575988"/>
<path d="M519.263 65.3557C519.659 65.3557 519.98 65.0343 519.98 64.6378C519.98 64.2413 519.659 63.9199 519.263 63.9199C518.867 63.9199 518.546 64.2413 518.546 64.6378C518.546 65.0343 518.867 65.3557 519.263 65.3557Z" fill="#575988"/>
<path d="M519.376 66.9895C519.772 66.9895 520.093 66.6681 520.093 66.2716C520.093 65.8751 519.772 65.5537 519.376 65.5537C518.98 65.5537 518.659 65.8751 518.659 66.2716C518.659 66.6681 518.98 66.9895 519.376 66.9895Z" fill="#575988"/>
<path d="M519.472 68.6174C519.868 68.6174 520.189 68.296 520.189 67.8995C520.189 67.5031 519.868 67.1816 519.472 67.1816C519.076 67.1816 518.755 67.5031 518.755 67.8995C518.755 68.296 519.076 68.6174 519.472 68.6174Z" fill="#575988"/>
<path opacity="0.1" d="M462.463 112.765C462.356 112.635 487.247 144.103 506.566 125.918C506.583 125.924 476.058 130.067 462.463 112.765Z" fill="black"/>
<path opacity="0.1" d="M448.18 129.123C448.18 129.123 463.073 129.53 464.631 133.82V138.286C464.207 138.522 463.73 138.645 463.245 138.645C462.76 138.645 462.283 138.522 461.859 138.286C460.357 137.472 451.353 132.893 448.18 135.098V129.123Z" fill="black"/>
<path d="M448.456 129.123C448.456 129.123 462.7 129.513 464.191 133.606V137.856C463.785 138.082 463.328 138.201 462.864 138.201C462.4 138.201 461.943 138.082 461.537 137.856C460.103 137.088 451.494 132.718 448.456 134.821V129.123Z" fill="#3F3D56"/>
<path opacity="0.1" d="M456.309 96.7449C457.831 100.271 459.77 103.602 462.085 106.665C464.602 110.051 467.653 113.005 471.118 115.41C471.118 115.41 456.558 98.7911 456.309 96.7449Z" fill="black"/>
<path opacity="0.1" d="M451.437 79.4194C451.437 79.4194 453.921 90.1594 460.323 93.8054L451.437 79.4194Z" fill="black"/>
<path opacity="0.1" d="M447.627 80.5048C447.564 80.3069 445.419 88.9838 455.88 93.8055C455.88 93.8055 451.437 92.2962 447.627 80.5048Z" fill="black"/>
<path opacity="0.1" d="M512.658 73.3036C512.494 73.3036 517.818 76.6951 519.269 78.2779C519.269 78.2779 515.802 73.0774 512.658 73.3036Z" fill="black"/>
<path d="M478.965 65.8814C478.967 66.1683 479.028 66.4518 479.145 66.7138C479.262 66.9757 479.432 67.2106 479.645 67.4034C479.857 67.5963 480.107 67.7429 480.378 67.8341C480.65 67.9253 480.938 67.9591 481.223 67.9333C485.226 68.182 489.398 68.3572 493.079 66.8028C493.769 66.556 494.389 66.1447 494.886 65.6044C495.54 64.7961 495.67 63.6995 495.936 62.6933C496.455 60.7262 497.562 58.9795 498.358 57.1085C499.704 53.9474 500.156 50.476 499.662 47.0751C499.558 46.0326 499.214 45.0284 498.657 44.1414C497.595 42.6208 495.659 42.0047 494.253 40.795C492.848 39.5853 491.944 37.7369 490.301 36.8382C488.822 36.0129 487.01 36.1146 485.345 36.3973C482.069 36.9542 478.93 38.1343 476.097 39.8736C475.143 40.4389 474.099 41.1342 473.003 40.925C472.044 40.7441 471.344 39.9358 470.745 39.1783C469.975 40.9873 469.652 42.9552 469.802 44.9158C469.844 45.2035 469.834 45.4963 469.774 45.7806C469.636 46.1244 469.426 46.4347 469.159 46.6907C468.171 47.8212 467.555 49.6583 468.532 50.8228C468.955 51.3259 469.61 51.6028 470.022 52.1172C470.762 53.0386 470.514 54.3783 470.497 55.554C470.456 55.9646 470.56 56.3765 470.79 56.7185C471.004 56.9178 471.265 57.0585 471.549 57.1268C471.833 57.1952 472.13 57.1888 472.411 57.1085C472.97 56.9398 473.557 56.8841 474.138 56.9446C474.75 57.1439 475.279 57.5416 475.64 58.0751C477.463 60.4549 478.186 63.0438 478.965 65.8814Z" fill="#2D293D"/>
<g opacity="0.1">
<path opacity="0.1" d="M495.354 64.6038C494.858 65.1441 494.238 65.5554 493.548 65.8022C489.844 67.3453 485.678 67.1701 481.692 66.9327C481.264 66.9369 480.841 66.8422 480.456 66.6557C479.846 66.2996 479.614 65.5534 479.428 64.8751C478.649 62.0488 477.932 59.4542 476.08 57.0971C475.723 56.5534 475.195 56.1453 474.579 55.9383C473.998 55.8834 473.411 55.939 472.851 56.1022C472.571 56.1833 472.274 56.1905 471.99 56.1232C471.707 56.0558 471.445 55.9162 471.231 55.7179C471 55.3758 470.896 54.964 470.937 54.5534C470.937 53.3664 471.202 52.038 470.463 51.1166C470.051 50.6022 469.396 50.3252 468.972 49.8165C468.696 49.4414 468.527 48.9984 468.482 48.5346C468.437 48.0707 468.519 47.6034 468.718 47.1824C468.013 48.3129 467.714 49.7317 468.532 50.704C468.956 51.207 469.61 51.484 470.023 51.9984C470.762 52.9255 470.514 54.2595 470.497 55.4352C470.453 55.8452 470.555 56.2573 470.785 56.5997C470.999 56.8 471.261 56.9412 471.546 57.0096C471.831 57.0779 472.129 57.0711 472.411 56.9897C472.97 56.821 473.557 56.7653 474.138 56.8258C474.75 57.025 475.279 57.4228 475.64 57.9563C477.486 60.3134 478.209 62.9023 478.988 65.74C479.079 66.4382 479.427 67.0772 479.964 67.5319C480.351 67.7186 480.777 67.8116 481.206 67.8032C485.209 68.0519 489.381 68.2328 493.062 66.6727C493.753 66.4276 494.374 66.016 494.869 65.4743C495.118 65.1559 495.309 64.7962 495.433 64.4116C495.439 64.4851 495.399 64.5473 495.354 64.6038Z" fill="black"/>
<path opacity="0.1" d="M469.802 45.4357C469.98 45.2429 470.116 45.016 470.203 44.7687C470.254 44.4827 470.254 44.1899 470.203 43.9039C470.093 42.2923 470.302 40.6748 470.818 39.1444L470.745 39.0596C469.973 40.8658 469.649 42.8325 469.802 44.7913C469.819 45.0058 469.819 45.2213 469.802 45.4357V45.4357Z" fill="black"/>
</g>
<path opacity="0.1" d="M476.622 73.8515C476.622 73.8515 493.034 76.0334 494.507 73.5632Z" fill="black"/>
<path opacity="0.1" d="M508.525 67.0515C508.525 67.0515 517.649 67.0515 519.653 70.4883Z" fill="black"/>
<path d="M559.567 372.379C556.861 374.801 553.345 376.116 549.715 376.064C548.79 376.064 547.508 376.239 547.502 377.166C547.525 377.438 547.618 377.7 547.773 377.924C548.919 379.836 550.728 381.259 552.854 381.92C554.83 382.519 556.942 382.418 559.002 382.31L565.015 381.999C566.144 381.937 567.273 381.881 568.402 381.739C569.531 381.598 570.762 381.366 571.942 381.174C574.841 380.761 577.773 380.625 580.698 380.767C581.477 380.795 582.392 380.767 582.855 380.202C583.318 379.637 583.081 378.557 582.906 377.709C582.544 375.962 582.906 374.131 582.573 372.379C582.008 369.304 579.349 366.946 576.436 365.833C573.726 364.804 568.927 363.623 566.364 365.341C563.66 367.144 562.006 370.157 559.567 372.379Z" fill="#3F3D56"/>
<path d="M565.54 269.354C566.071 271.88 568.515 273.814 568.583 276.391C568.645 278.46 567.172 280.195 566.11 281.965C565.11 283.797 564.266 285.711 563.587 287.685C561.588 292.826 559.108 297.766 556.18 302.439C554.768 304.7 553.187 307.113 553.509 309.742C553.734 310.971 554.168 312.152 554.791 313.235L559.025 321.658C559.952 323.339 560.678 325.125 561.187 326.977C561.554 328.576 561.588 330.233 561.803 331.861C562.469 337.027 564.891 342.227 563.457 347.236C563.333 347.665 562.892 348.185 562.548 347.886C563.948 350.503 565.071 353.137 564.964 356.105C564.908 357.659 564.433 359.281 565.004 360.729C565.246 361.333 565.67 361.899 565.664 362.549C565.664 362.978 565.467 363.38 565.421 363.798C565.303 364.991 566.398 365.985 567.533 366.364C568.668 366.743 569.904 366.715 571.05 367.06C573.252 367.721 574.827 369.62 576.696 370.937C578.613 372.259 580.872 372.996 583.199 373.057C583.531 373.092 583.866 373.025 584.159 372.865C584.325 372.719 584.458 372.541 584.55 372.34C584.641 372.139 584.689 371.921 584.69 371.7C584.792 370.645 584.633 369.58 584.228 368.6C583.822 367.62 583.182 366.755 582.364 366.082C582.005 365.857 581.708 365.546 581.5 365.177C581.395 364.851 581.368 364.504 581.421 364.165C581.762 359.532 581.679 354.878 581.173 350.26C580.944 348.796 580.871 347.313 580.952 345.834C581.071 344.602 581.444 343.381 581.308 342.154C581.173 340.927 580.546 339.808 580.179 338.627C579.524 336.524 579.705 334.263 579.614 332.064C579.501 328.243 578.626 324.489 577.757 320.759C577.413 319.295 577.034 317.763 576.001 316.678C575.121 315.756 573.698 314.874 574.031 313.648C574.215 313.196 574.49 312.786 574.838 312.444C575.247 311.93 575.547 311.338 575.72 310.705C575.893 310.071 575.935 309.409 575.843 308.758C576.215 308.853 576.607 308.816 576.954 308.653C577.301 308.49 577.581 308.212 577.746 307.865C584.622 304.615 590.166 298.114 592.639 290.907C592.785 290.372 593.009 289.861 593.305 289.392C593.943 288.499 595.049 288.115 596.032 287.623C599.114 286.069 601.243 283.157 603.196 280.309C604.325 278.658 605.454 276.951 605.962 275.006C606.229 273.749 606.356 272.465 606.341 271.18L606.516 264.538C606.554 264.1 606.512 263.66 606.391 263.238C606.224 262.843 605.98 262.486 605.674 262.186C603.797 260.198 601.331 258.866 598.64 258.388C596.833 258.065 594.987 258.128 593.158 257.975C589.613 257.681 586.112 256.579 582.567 256.844C576.995 257.257 572.032 261.123 569.407 266.064C568.487 267.805 567.516 269.32 565.54 269.354Z" fill="#464353"/>
<path d="M534.602 226.167C534.677 227.193 534.539 228.223 534.196 229.192C533.761 230.119 532.671 230.842 531.717 230.463C532.005 229.813 531.243 229.073 530.532 229.152C530.182 229.233 529.857 229.397 529.584 229.632C529.312 229.866 529.1 230.163 528.968 230.497C528.496 231.447 528.338 232.522 528.516 233.567C528.742 234.867 529.493 236.116 529.295 237.422C529.137 238.507 528.341 239.587 528.765 240.593C529.039 241.053 529.384 241.467 529.787 241.82C530.344 242.508 530.617 243.384 530.549 244.267C530.481 245.151 530.076 245.974 529.42 246.568L540.101 246.783C539.711 248.569 540.513 250.395 541.428 251.983C543.989 256.35 547.527 260.063 551.762 262.832C555.997 265.601 560.816 267.349 565.839 267.94C565.568 268.099 565.335 268.316 565.157 268.576C564.98 268.836 564.862 269.133 564.813 269.444C564.764 269.755 564.784 270.073 564.873 270.375C564.962 270.677 565.116 270.956 565.325 271.191C566.195 272.056 567.668 271.948 568.758 271.389C569.848 270.829 570.7 269.902 571.694 269.184C573.448 267.94 575.588 267.362 577.729 267.556C579.067 267.686 580.365 268.121 581.709 268.189C585.661 268.398 589.048 265.549 592.853 264.385C595.625 263.531 598.77 263.531 601.096 261.796C602.101 261.05 602.925 259.823 602.632 258.614C602.389 257.918 602.004 257.281 601.502 256.743C600.164 255.007 599.374 252.921 598.414 250.949C596.513 247.043 593.895 243.53 590.697 240.593C588.283 238.48 585.725 236.539 583.041 234.782C582.393 234.303 581.701 233.884 580.975 233.533C580.038 233.12 578.999 232.922 578.152 232.402C576.899 231.611 576.176 230.215 575.211 229.09C573.094 226.614 569.842 225.478 567.234 223.533C565.484 222.228 563.937 220.509 561.848 219.882C560.832 219.571 559.753 219.548 558.737 219.243C556.428 218.542 554.746 216.49 552.482 215.659C550.692 215.004 548.716 215.173 546.836 214.941C544.717 214.68 542.693 213.908 540.937 212.692C540.371 212.23 539.736 211.86 539.057 211.595C536.194 210.724 535.963 216.061 535.669 217.909C535.291 220.656 534.602 223.386 534.602 226.167Z" fill="#13B3FF"/>
<path d="M537.391 244.064C537.871 249.276 533.942 254.323 535.088 259.428C535.331 260.513 535.799 261.547 535.968 262.65C536.448 265.674 534.642 268.54 532.92 271.072L518.128 292.807C517.535 293.761 516.825 294.638 516.017 295.418C513.194 297.933 508.949 297.679 505.234 298.425C502.624 298.962 500.16 300.053 498.008 301.625C497.911 301.7 497.847 301.81 497.83 301.931C497.813 302.053 497.844 302.176 497.917 302.275C498.531 303.111 499.343 303.78 500.281 304.222C501.219 304.663 502.252 304.862 503.286 304.801C503.676 305.31 503.286 306.068 502.75 306.435C501.959 307 500.864 307.13 500.706 308.481C500.653 308.951 500.747 309.425 500.977 309.838C501.575 310.749 502.501 311.393 503.563 311.635C508.683 313.207 514.216 310.448 518.049 306.701C521.883 302.953 524.632 298.222 528.392 294.412C530.475 292.298 532.841 290.495 534.986 288.448C539.266 284.362 542.596 279.404 545.803 274.435C546.768 272.938 547.745 271.4 548.146 269.665C548.547 267.929 548.361 266.171 548.818 264.492C549.416 262.294 551.025 260.536 552.363 258.693C554.988 255.075 556.744 250.649 556.394 246.189C556.044 241.729 553.289 237.332 549.089 235.817C547.786 235.298 546.352 235.211 544.996 235.568C543.274 236.099 542.004 237.524 540.829 238.892L538.007 242.136C537.319 242.855 536.78 243.702 536.42 244.629C536.238 245.096 536.195 245.606 536.295 246.097C536.395 246.589 536.634 247.041 536.985 247.399" fill="#FBBEBE"/>
<path d="M544.888 222.686C542.946 222.799 540.807 222.991 539.435 224.381C538.86 225.02 538.394 225.75 538.057 226.541C536.725 229.26 535.426 232.103 535.33 235.133C535.251 237.552 535.952 239.92 536.318 242.311C536.623 244.301 535.85 246.33 535.703 248.343C538.114 247.602 541.298 246.596 543.483 245.347C544.973 244.493 546.413 243.521 548.039 242.978C550.359 242.204 554.249 243.544 556.456 244.618C556.575 243.069 555.412 240.367 555.536 238.812C555.553 238.158 555.669 237.51 555.88 236.891C556.211 236.235 556.602 235.613 557.049 235.031C557.889 233.663 558.276 232.064 558.153 230.463C558.03 228.862 557.405 227.34 556.366 226.117C554.407 223.912 551.341 223.087 548.417 222.725C546.575 222.511 544.719 222.447 542.867 222.533" fill="#13B3FF"/>
<path d="M219.917 84.4452C219.917 92.8643 213.092 99.6893 204.672 99.6893C196.253 99.6893 189.428 92.8643 189.428 84.4452C189.428 76.0262 196.253 69.2012 204.672 69.2012C213.092 69.2012 219.917 76.0262 219.917 84.4452Z" stroke="#8DD070"/>
<ellipse cx="614.835" cy="203.855" rx="2.24915" ry="2.24915" fill="white" fill-opacity="0.35"/>
<ellipse cx="621.583" cy="203.855" rx="2.24915" ry="2.24915" fill="white" fill-opacity="0.35"/>
<ellipse cx="628.33" cy="203.855" rx="2.24918" ry="2.24915" fill="white" fill-opacity="0.35"/>
<ellipse cx="635.078" cy="203.855" rx="2.24915" ry="2.24915" fill="white" fill-opacity="0.35"/>
<ellipse cx="641.825" cy="203.855" rx="2.24915" ry="2.24915" fill="white" fill-opacity="0.35"/>
<ellipse cx="614.835" cy="197.107" rx="2.24915" ry="2.24915" fill="white" fill-opacity="0.35"/>
<ellipse cx="621.583" cy="197.107" rx="2.24915" ry="2.24915" fill="white" fill-opacity="0.35"/>
<ellipse cx="628.33" cy="197.107" rx="2.24918" ry="2.24915" fill="white" fill-opacity="0.35"/>
<ellipse cx="635.078" cy="197.107" rx="2.24915" ry="2.24915" fill="white" fill-opacity="0.35"/>
<ellipse cx="641.825" cy="197.107" rx="2.24915" ry="2.24915" fill="white" fill-opacity="0.35"/>
<ellipse cx="614.835" cy="190.36" rx="2.24915" ry="2.24915" fill="white" fill-opacity="0.35"/>
<ellipse cx="621.583" cy="190.36" rx="2.24915" ry="2.24915" fill="white" fill-opacity="0.35"/>
<ellipse cx="628.33" cy="190.36" rx="2.24918" ry="2.24915" fill="white" fill-opacity="0.35"/>
<ellipse cx="635.078" cy="190.36" rx="2.24915" ry="2.24915" fill="white" fill-opacity="0.35"/>
<ellipse cx="641.825" cy="190.36" rx="2.24915" ry="2.24915" fill="white" fill-opacity="0.35"/>
<circle cx="614.835" cy="183.612" r="2.24915" fill="white" fill-opacity="0.35"/>
<circle cx="621.583" cy="183.612" r="2.24915" fill="white" fill-opacity="0.35"/>
<ellipse cx="628.33" cy="183.612" rx="2.24918" ry="2.24915" fill="white" fill-opacity="0.35"/>
<circle cx="635.078" cy="183.612" r="2.24915" fill="white" fill-opacity="0.35"/>
<circle cx="641.825" cy="183.612" r="2.24915" fill="white" fill-opacity="0.35"/>
<ellipse cx="614.835" cy="176.865" rx="2.24915" ry="2.24915" fill="white" fill-opacity="0.35"/>
<ellipse cx="621.583" cy="176.865" rx="2.24915" ry="2.24915" fill="white" fill-opacity="0.35"/>
<ellipse cx="628.33" cy="176.865" rx="2.24918" ry="2.24915" fill="white" fill-opacity="0.35"/>
<ellipse cx="635.078" cy="176.865" rx="2.24915" ry="2.24915" fill="white" fill-opacity="0.35"/>
<ellipse cx="641.825" cy="176.865" rx="2.24915" ry="2.24915" fill="white" fill-opacity="0.35"/>
<path d="M478.373 343.506V353.525M478.373 363.544V353.525M478.373 353.525H466.596M478.373 353.525H489.497" stroke="#7FBC65"/>
</g>
<ellipse cx="609.047" cy="435.226" rx="2.1857" ry="2.65132" fill="white" fill-opacity="0.35"/>
<ellipse cx="615.604" cy="435.226" rx="2.18561" ry="2.65132" fill="white" fill-opacity="0.35"/>
<ellipse cx="622.161" cy="435.226" rx="2.18561" ry="2.65132" fill="white" fill-opacity="0.35"/>
<ellipse cx="628.718" cy="435.226" rx="2.18561" ry="2.65132" fill="white" fill-opacity="0.35"/>
<ellipse cx="635.275" cy="435.226" rx="2.18566" ry="2.65132" fill="white" fill-opacity="0.35"/>
<ellipse cx="609.047" cy="427.272" rx="2.1857" ry="2.65128" fill="white" fill-opacity="0.35"/>
<ellipse cx="615.604" cy="427.272" rx="2.18561" ry="2.65141" fill="white" fill-opacity="0.35"/>
<ellipse cx="622.161" cy="427.272" rx="2.18561" ry="2.65141" fill="white" fill-opacity="0.35"/>
<ellipse cx="628.718" cy="427.272" rx="2.18561" ry="2.65141" fill="white" fill-opacity="0.35"/>
<ellipse cx="635.275" cy="427.272" rx="2.18566" ry="2.65141" fill="white" fill-opacity="0.35"/>
<ellipse cx="609.047" cy="419.318" rx="2.1857" ry="2.65137" fill="white" fill-opacity="0.35"/>
<ellipse cx="615.604" cy="419.318" rx="2.18561" ry="2.65137" fill="white" fill-opacity="0.35"/>
<ellipse cx="622.161" cy="419.318" rx="2.18561" ry="2.65137" fill="white" fill-opacity="0.35"/>
<ellipse cx="628.718" cy="419.318" rx="2.18561" ry="2.65137" fill="white" fill-opacity="0.35"/>
<ellipse cx="635.275" cy="419.318" rx="2.18566" ry="2.65137" fill="white" fill-opacity="0.35"/>
<ellipse cx="609.047" cy="411.363" rx="2.1857" ry="2.65132" fill="white" fill-opacity="0.35"/>
<ellipse cx="615.604" cy="411.363" rx="2.18561" ry="2.65132" fill="white" fill-opacity="0.35"/>
<ellipse cx="622.161" cy="411.363" rx="2.18561" ry="2.65132" fill="white" fill-opacity="0.35"/>
<ellipse cx="628.718" cy="411.363" rx="2.18561" ry="2.65132" fill="white" fill-opacity="0.35"/>
<ellipse cx="635.275" cy="411.363" rx="2.18566" ry="2.65132" fill="white" fill-opacity="0.35"/>
<ellipse cx="609.047" cy="403.409" rx="2.1857" ry="2.65154" fill="white" fill-opacity="0.35"/>
<ellipse cx="615.604" cy="403.409" rx="2.18561" ry="2.65154" fill="white" fill-opacity="0.35"/>
<ellipse cx="622.161" cy="403.409" rx="2.18561" ry="2.65154" fill="white" fill-opacity="0.35"/>
<ellipse cx="628.718" cy="403.409" rx="2.18561" ry="2.65154" fill="white" fill-opacity="0.35"/>
<ellipse cx="635.275" cy="403.409" rx="2.18566" ry="2.65154" fill="white" fill-opacity="0.35"/>
<ellipse cx="43.1085" cy="117.577" rx="3.0328" ry="3.09916" fill="white" fill-opacity="0.35"/>
<ellipse cx="52.207" cy="117.577" rx="3.03271" ry="3.09916" fill="white" fill-opacity="0.35"/>
<ellipse cx="61.3053" cy="117.577" rx="3.03271" ry="3.09916" fill="white" fill-opacity="0.35"/>
<ellipse cx="70.4037" cy="117.577" rx="3.03276" ry="3.09916" fill="white" fill-opacity="0.35"/>
<ellipse cx="79.5019" cy="117.577" rx="3.03276" ry="3.09916" fill="white" fill-opacity="0.35"/>
<ellipse cx="43.1085" cy="108.28" rx="3.0328" ry="3.09916" fill="white" fill-opacity="0.35"/>
<ellipse cx="52.207" cy="108.28" rx="3.03271" ry="3.09916" fill="white" fill-opacity="0.35"/>
<ellipse cx="61.3053" cy="108.28" rx="3.03271" ry="3.09916" fill="white" fill-opacity="0.35"/>
<ellipse cx="70.4037" cy="108.28" rx="3.03276" ry="3.09916" fill="white" fill-opacity="0.35"/>
<ellipse cx="79.5019" cy="108.28" rx="3.03276" ry="3.09916" fill="white" fill-opacity="0.35"/>
<ellipse cx="43.1085" cy="98.9828" rx="3.0328" ry="3.09922" fill="white" fill-opacity="0.35"/>
<ellipse cx="52.207" cy="98.9828" rx="3.03271" ry="3.09922" fill="white" fill-opacity="0.35"/>
<ellipse cx="61.3053" cy="98.9828" rx="3.03271" ry="3.09922" fill="white" fill-opacity="0.35"/>
<ellipse cx="70.4037" cy="98.9828" rx="3.03276" ry="3.09922" fill="white" fill-opacity="0.35"/>
<ellipse cx="79.5019" cy="98.9828" rx="3.03276" ry="3.09922" fill="white" fill-opacity="0.35"/>
<ellipse cx="43.1085" cy="89.6855" rx="3.0328" ry="3.09907" fill="white" fill-opacity="0.35"/>
<ellipse cx="52.207" cy="89.6855" rx="3.03271" ry="3.09907" fill="white" fill-opacity="0.35"/>
<ellipse cx="61.3053" cy="89.6855" rx="3.03271" ry="3.09907" fill="white" fill-opacity="0.35"/>
<ellipse cx="70.4037" cy="89.6855" rx="3.03276" ry="3.09907" fill="white" fill-opacity="0.35"/>
<ellipse cx="79.5019" cy="89.6855" rx="3.03276" ry="3.09907" fill="white" fill-opacity="0.35"/>
<ellipse cx="43.1085" cy="80.3882" rx="3.0328" ry="3.0991" fill="white" fill-opacity="0.35"/>
<ellipse cx="52.207" cy="80.3882" rx="3.03271" ry="3.0991" fill="white" fill-opacity="0.35"/>
<ellipse cx="61.3053" cy="80.3882" rx="3.03271" ry="3.0991" fill="white" fill-opacity="0.35"/>
<ellipse cx="70.4037" cy="80.3882" rx="3.03276" ry="3.0991" fill="white" fill-opacity="0.35"/>
<ellipse cx="79.5019" cy="80.3882" rx="3.03276" ry="3.0991" fill="white" fill-opacity="0.35"/>
<ellipse cx="48.5826" cy="444.626" rx="2.7817" ry="3.37458" fill="white" fill-opacity="0.35"/>
<ellipse cx="56.9278" cy="444.626" rx="2.78175" ry="3.37458" fill="white" fill-opacity="0.35"/>
<ellipse cx="48.5826" cy="434.502" rx="2.7817" ry="3.37443" fill="white" fill-opacity="0.35"/>
<ellipse cx="56.9278" cy="434.502" rx="2.78175" ry="3.37443" fill="white" fill-opacity="0.35"/>
<ellipse cx="65.273" cy="434.502" rx="2.78179" ry="3.37443" fill="white" fill-opacity="0.35"/>
<ellipse cx="73.6181" cy="434.502" rx="2.78166" ry="3.37443" fill="white" fill-opacity="0.35"/>
<ellipse cx="81.9632" cy="434.502" rx="2.78175" ry="3.37443" fill="white" fill-opacity="0.35"/>
<ellipse cx="48.5826" cy="424.378" rx="2.7817" ry="3.37428" fill="white" fill-opacity="0.35"/>
<ellipse cx="56.9278" cy="424.378" rx="2.78175" ry="3.37428" fill="white" fill-opacity="0.35"/>
<ellipse cx="65.273" cy="424.378" rx="2.78179" ry="3.37428" fill="white" fill-opacity="0.35"/>
<ellipse cx="73.6181" cy="424.378" rx="2.78166" ry="3.37428" fill="white" fill-opacity="0.35"/>
<ellipse cx="81.9632" cy="424.378" rx="2.78175" ry="3.37428" fill="white" fill-opacity="0.35"/>
<ellipse cx="48.5826" cy="414.255" rx="2.7817" ry="3.37463" fill="white" fill-opacity="0.35"/>
<ellipse cx="56.9278" cy="414.255" rx="2.78175" ry="3.37463" fill="white" fill-opacity="0.35"/>
<ellipse cx="65.273" cy="414.255" rx="2.78179" ry="3.37463" fill="white" fill-opacity="0.35"/>
<ellipse cx="73.6181" cy="414.255" rx="2.78166" ry="3.37463" fill="white" fill-opacity="0.35"/>
<ellipse cx="81.9632" cy="414.255" rx="2.78175" ry="3.37463" fill="white" fill-opacity="0.35"/>
<ellipse cx="73.6181" cy="404.132" rx="2.78166" ry="3.37423" fill="white" fill-opacity="0.35"/>
<ellipse cx="81.9632" cy="404.132" rx="2.78175" ry="3.37423" fill="white" fill-opacity="0.35"/>
<ellipse cx="51.6604" cy="294.147" rx="1.58953" ry="1.92839" fill="white" fill-opacity="0.35"/>
<ellipse cx="56.4291" cy="294.147" rx="1.58948" ry="1.92839" fill="white" fill-opacity="0.35"/>
<ellipse cx="61.1977" cy="294.147" rx="1.58948" ry="1.92839" fill="white" fill-opacity="0.35"/>
<ellipse cx="65.9664" cy="294.147" rx="1.58966" ry="1.92839" fill="white" fill-opacity="0.35"/>
<ellipse cx="70.735" cy="294.147" rx="1.58961" ry="1.92839" fill="white" fill-opacity="0.35"/>
<ellipse cx="51.6604" cy="288.363" rx="1.58953" ry="1.92828" fill="white" fill-opacity="0.35"/>
<ellipse cx="56.4291" cy="288.363" rx="1.58948" ry="1.92828" fill="white" fill-opacity="0.35"/>
<ellipse cx="61.1977" cy="288.363" rx="1.58948" ry="1.92828" fill="white" fill-opacity="0.35"/>
<ellipse cx="65.9664" cy="288.363" rx="1.58966" ry="1.92828" fill="white" fill-opacity="0.35"/>
<ellipse cx="70.735" cy="288.363" rx="1.58961" ry="1.92828" fill="white" fill-opacity="0.35"/>
<ellipse cx="51.6604" cy="282.578" rx="1.58953" ry="1.92826" fill="white" fill-opacity="0.35"/>
<ellipse cx="56.4291" cy="282.578" rx="1.58948" ry="1.92826" fill="white" fill-opacity="0.35"/>
<ellipse cx="61.1977" cy="282.578" rx="1.58948" ry="1.92826" fill="white" fill-opacity="0.35"/>
<ellipse cx="65.9664" cy="282.578" rx="1.58966" ry="1.92826" fill="white" fill-opacity="0.35"/>
<ellipse cx="70.735" cy="282.578" rx="1.58961" ry="1.92826" fill="white" fill-opacity="0.35"/>
<ellipse cx="51.6604" cy="276.793" rx="1.58953" ry="1.92841" fill="white" fill-opacity="0.35"/>
<ellipse cx="56.4291" cy="276.793" rx="1.58948" ry="1.92841" fill="white" fill-opacity="0.35"/>
<ellipse cx="61.1977" cy="276.793" rx="1.58948" ry="1.92841" fill="white" fill-opacity="0.35"/>
<ellipse cx="65.9664" cy="276.793" rx="1.58966" ry="1.92841" fill="white" fill-opacity="0.35"/>
<ellipse cx="70.735" cy="276.793" rx="1.58961" ry="1.92841" fill="white" fill-opacity="0.35"/>
<ellipse cx="51.6604" cy="271.008" rx="1.58953" ry="1.92837" fill="white" fill-opacity="0.35"/>
<ellipse cx="56.4291" cy="271.008" rx="1.58948" ry="1.92837" fill="white" fill-opacity="0.35"/>
<ellipse cx="61.1977" cy="271.008" rx="1.58948" ry="1.92837" fill="white" fill-opacity="0.35"/>
<ellipse cx="65.9664" cy="271.008" rx="1.58966" ry="1.92837" fill="white" fill-opacity="0.35"/>
<ellipse cx="70.735" cy="271.008" rx="1.58961" ry="1.92837" fill="white" fill-opacity="0.35"/>
<ellipse cx="26.6249" cy="294.147" rx="1.58948" ry="1.92839" fill="white" fill-opacity="0.35"/>
<ellipse cx="31.3936" cy="294.147" rx="1.58953" ry="1.92839" fill="white" fill-opacity="0.35"/>
<ellipse cx="36.1623" cy="294.147" rx="1.58957" ry="1.92839" fill="white" fill-opacity="0.35"/>
<ellipse cx="40.9309" cy="294.147" rx="1.58961" ry="1.92839" fill="white" fill-opacity="0.35"/>
<ellipse cx="45.6996" cy="294.147" rx="1.58961" ry="1.92839" fill="white" fill-opacity="0.35"/>
<ellipse cx="26.6249" cy="288.363" rx="1.58948" ry="1.92828" fill="white" fill-opacity="0.35"/>
<ellipse cx="31.3936" cy="288.363" rx="1.58953" ry="1.92828" fill="white" fill-opacity="0.35"/>
<ellipse cx="36.1623" cy="288.363" rx="1.58957" ry="1.92828" fill="white" fill-opacity="0.35"/>
<ellipse cx="40.9309" cy="288.363" rx="1.58961" ry="1.92828" fill="white" fill-opacity="0.35"/>
<ellipse cx="45.6996" cy="288.363" rx="1.58961" ry="1.92828" fill="white" fill-opacity="0.35"/>
<ellipse cx="26.6249" cy="282.578" rx="1.58948" ry="1.92826" fill="white" fill-opacity="0.35"/>
<ellipse cx="31.3936" cy="282.578" rx="1.58953" ry="1.92826" fill="white" fill-opacity="0.35"/>
<ellipse cx="36.1623" cy="282.578" rx="1.58957" ry="1.92826" fill="white" fill-opacity="0.35"/>
<ellipse cx="40.9309" cy="282.578" rx="1.58961" ry="1.92826" fill="white" fill-opacity="0.35"/>
<ellipse cx="45.6996" cy="282.578" rx="1.58961" ry="1.92826" fill="white" fill-opacity="0.35"/>
<ellipse cx="26.6249" cy="276.793" rx="1.58948" ry="1.92841" fill="white" fill-opacity="0.35"/>
<ellipse cx="31.3936" cy="276.793" rx="1.58953" ry="1.92841" fill="white" fill-opacity="0.35"/>
<ellipse cx="36.1623" cy="276.793" rx="1.58957" ry="1.92841" fill="white" fill-opacity="0.35"/>
<ellipse cx="40.9309" cy="276.793" rx="1.58961" ry="1.92841" fill="white" fill-opacity="0.35"/>
<ellipse cx="45.6996" cy="276.793" rx="1.58961" ry="1.92841" fill="white" fill-opacity="0.35"/>
<ellipse cx="26.6249" cy="271.008" rx="1.58948" ry="1.92837" fill="white" fill-opacity="0.35"/>
<ellipse cx="31.3936" cy="271.008" rx="1.58953" ry="1.92837" fill="white" fill-opacity="0.35"/>
<ellipse cx="36.1623" cy="271.008" rx="1.58957" ry="1.92837" fill="white" fill-opacity="0.35"/>
<ellipse cx="40.9309" cy="271.008" rx="1.58961" ry="1.92837" fill="white" fill-opacity="0.35"/>
<ellipse cx="45.6996" cy="271.008" rx="1.58961" ry="1.92837" fill="white" fill-opacity="0.35"/>
<ellipse cx="1.58953" cy="294.147" rx="1.58953" ry="1.92839" fill="white" fill-opacity="0.35"/>
<ellipse cx="6.35828" cy="294.147" rx="1.58957" ry="1.92839" fill="white" fill-opacity="0.35"/>
<ellipse cx="11.1269" cy="294.147" rx="1.58961" ry="1.92839" fill="white" fill-opacity="0.35"/>
<ellipse cx="15.8955" cy="294.147" rx="1.58948" ry="1.92839" fill="white" fill-opacity="0.35"/>
<ellipse cx="20.6642" cy="294.147" rx="1.58957" ry="1.92839" fill="white" fill-opacity="0.35"/>
<ellipse cx="1.58953" cy="288.363" rx="1.58953" ry="1.92828" fill="white" fill-opacity="0.35"/>
<ellipse cx="6.35828" cy="288.363" rx="1.58957" ry="1.92828" fill="white" fill-opacity="0.35"/>
<ellipse cx="11.1269" cy="288.363" rx="1.58961" ry="1.92828" fill="white" fill-opacity="0.35"/>
<ellipse cx="15.8955" cy="288.363" rx="1.58948" ry="1.92828" fill="white" fill-opacity="0.35"/>
<ellipse cx="20.6642" cy="288.363" rx="1.58957" ry="1.92828" fill="white" fill-opacity="0.35"/>
<ellipse cx="1.58953" cy="282.578" rx="1.58953" ry="1.92826" fill="white" fill-opacity="0.35"/>
<ellipse cx="6.35828" cy="282.578" rx="1.58957" ry="1.92826" fill="white" fill-opacity="0.35"/>
<ellipse cx="11.1269" cy="282.578" rx="1.58961" ry="1.92826" fill="white" fill-opacity="0.35"/>
<ellipse cx="15.8955" cy="282.578" rx="1.58948" ry="1.92826" fill="white" fill-opacity="0.35"/>
<ellipse cx="20.6642" cy="282.578" rx="1.58957" ry="1.92826" fill="white" fill-opacity="0.35"/>
<ellipse cx="1.58953" cy="276.793" rx="1.58953" ry="1.92841" fill="white" fill-opacity="0.35"/>
<ellipse cx="6.35828" cy="276.793" rx="1.58957" ry="1.92841" fill="white" fill-opacity="0.35"/>
<ellipse cx="11.1269" cy="276.793" rx="1.58961" ry="1.92841" fill="white" fill-opacity="0.35"/>
<ellipse cx="15.8955" cy="276.793" rx="1.58948" ry="1.92841" fill="white" fill-opacity="0.35"/>
<ellipse cx="20.6642" cy="276.793" rx="1.58957" ry="1.92841" fill="white" fill-opacity="0.35"/>
<ellipse cx="1.58953" cy="271.008" rx="1.58953" ry="1.92837" fill="white" fill-opacity="0.35"/>
<ellipse cx="6.35828" cy="271.008" rx="1.58957" ry="1.92837" fill="white" fill-opacity="0.35"/>
<ellipse cx="11.1269" cy="271.008" rx="1.58961" ry="1.92837" fill="white" fill-opacity="0.35"/>
<ellipse cx="15.8955" cy="271.008" rx="1.58948" ry="1.92837" fill="white" fill-opacity="0.35"/>
<ellipse cx="20.6642" cy="271.008" rx="1.58957" ry="1.92837" fill="white" fill-opacity="0.35"/>
<defs>
<linearGradient id="paint0_linear" x1="464.541" y1="308.736" x2="464.541" y2="32.514" gradientUnits="userSpaceOnUse">
<stop stop-color="#808080" stop-opacity="0.25"/>
<stop offset="0.54" stop-color="#808080" stop-opacity="0.12"/>
<stop offset="1" stop-color="#808080" stop-opacity="0.1"/>
</linearGradient>
<clipPath id="clip0">
<rect width="592.549" height="383.582" fill="white" transform="translate(65.8386)"/>
</clipPath>
</defs>
</svg>
